<svg width="1600" height="175" viewBox="0 0 1600 175" fill="none" xmlns="http://www.w3.org/2000/svg">
<path d="M70 105H80V95H70V105Z" fill="white"/>
<path d="M60 85H70V75H60V85Z" fill="white"/>
<path d="M80 115H90V105H80V115Z" fill="white"/>
<path d="M80 95H90V85H80V95Z" fill="white"/>
<path d="M100 125H110V115H100V125Z" fill="white"/>
<path d="M90 105H100V95H90V105Z" fill="white"/>
<path d="M110 135H120V125H110V135Z" fill="white"/>
<path d="M110 115H120V105H110V115Z" fill="white"/>
<path d="M120 115H130V105H120V115Z" fill="white"/>
<path d="M110 95H120V85H110V95Z" fill="white"/>
<path d="M260 75H270V65H260V75Z" fill="white"/>
<path d="M130 105H140V95H130V105Z" fill="white"/>
<path d="M170 125V115H160V125H170Z" fill="white"/>
<path d="M150 135V125H140V135H150Z" fill="white"/>
<path d="M180 115V105H170V115H180Z" fill="white"/>
<path d="M160 115V105H150V115H160Z" fill="white"/>
<path d="M60 135V125H50V135H60Z" fill="white"/>
<path d="M40 145V135H30V145H40Z" fill="white"/>
<path d="M70 125V115H60V125H70Z" fill="white"/>
<path d="M50 125V115H40V125H50Z" fill="white"/>
<path d="M50 115V105H40V115H50Z" fill="white"/>
<path d="M30 125V115H20V125H30Z" fill="white"/>
<path d="M60 105V95H50V105H60Z" fill="white"/>
<path d="M40 105V95H30V105H40Z" fill="white"/>
<path d="M30 105V95H20V105H30Z" fill="white"/>
<path d="M10 115V105H0V115H10Z" fill="white"/>
<path d="M40 95V85H30V95H40Z" fill="white"/>
<path d="M20 95V85H10V95H20Z" fill="white"/>
<path d="M50 135V125H40V135H50Z" fill="white"/>
<path d="M30 145V135H20V145H30Z" fill="white"/>
<path d="M60 125V115H50V125H60Z" fill="white"/>
<path d="M40 125V115H30V125H40Z" fill="white"/>
<path d="M90 145V135H80V145H90Z" fill="white"/>
<path d="M70 155V145H60V155H70Z" fill="white"/>
<path d="M100 135V125H90V135H100Z" fill="white"/>
<path d="M80 135V125H70V135H80Z" fill="white"/>
<path d="M170 145V135H160V145H170Z" fill="white"/>
<path d="M150 155V145H140V155H150Z" fill="white"/>
<path d="M180 135V125H170V135H180Z" fill="white"/>
<path d="M160 135V125H150V135H160Z" fill="white"/>
<path d="M290 145V135H280V145H290Z" fill="white"/>
<path d="M270 155V145H260V155H270Z" fill="white"/>
<path d="M300 135V125H290V135H300Z" fill="white"/>
<path d="M280 135V125H270V135H280Z" fill="white"/>
<path d="M400 95H390V105H400V95Z" fill="white"/>
<path d="M400 125H390V135H400V125Z" fill="white"/>
<path d="M390 85H380V95H390V85Z" fill="white"/>
<path d="M390 105H380V115H390V105Z" fill="white"/>
<path d="M140 135V125H130V135H140Z" fill="white"/>
<path d="M120 145V135H110V145H120Z" fill="white"/>
<path d="M150 125V115H140V125H150Z" fill="white"/>
<path d="M130 125V115H120V125H130Z" fill="white"/>
<path d="M200 135V125H190V135H200Z" fill="white"/>
<path d="M180 145V135H170V145H180Z" fill="white"/>
<path d="M210 125V115H200V125H210Z" fill="white"/>
<path d="M190 125V115H180V125H190Z" fill="white"/>
<path d="M240 135V125H230V135H240Z" fill="white"/>
<path d="M220 145V135H210V145H220Z" fill="white"/>
<path d="M250 125V115H240V125H250Z" fill="white"/>
<path d="M230 125V115H220V125H230Z" fill="white"/>
<path d="M240 115V105H230V115H240Z" fill="white"/>
<path d="M220 125V115H210V125H220Z" fill="white"/>
<path d="M250 105V95H240V105H250Z" fill="white"/>
<path d="M230 105V95H220V105H230Z" fill="white"/>
<path d="M191 85V95H201V85H191Z" fill="white"/>
<path d="M211 75V85H221V75H211Z" fill="white"/>
<path d="M181 95V105H191V95H181Z" fill="white"/>
<path d="M201 95V105H211V95H201Z" fill="white"/>
<path d="M250 125V135H260V125H250Z" fill="white"/>
<path d="M270 115V125H280V115H270Z" fill="white"/>
<path d="M240 135V145H250V135H240Z" fill="white"/>
<path d="M260 135V145H270V135H260Z" fill="white"/>
<path d="M380 20H390V10H380V20Z" fill="white"/>
<path d="M10 10H20V0H10V10Z" fill="white"/>
<path d="M30 40H40V30H30V40Z" fill="white"/>
<path d="M90 35H100V25H90V35Z" fill="white"/>
<path d="M161 75H171V65H161V75Z" fill="white"/>
<path d="M151 55H161V45H151V55Z" fill="white"/>
<path d="M171 85H181V75H171V85Z" fill="white"/>
<path d="M171 65H181V55H171V65Z" fill="white"/>
<path d="M290 95V105H300V95H290Z" fill="white"/>
<path d="M310 85V95H320V85H310Z" fill="white"/>
<path d="M280 105V115H290V105H280Z" fill="white"/>
<path d="M300 105V115H310V105H300Z" fill="white"/>
<path d="M330 50V60H340V50H330Z" fill="white"/>
<path d="M350 40V50H360V40H350Z" fill="white"/>
<path d="M320 60V70H330V60H320Z" fill="white"/>
<path d="M340 60V70H350V60H340Z" fill="white"/>
<path d="M310 105V115H320V105H310Z" fill="white"/>
<path d="M330 95V105H340V95H330Z" fill="white"/>
<path d="M300 115V125H310V115H300Z" fill="white"/>
<path d="M320 115V125H330V115H320Z" fill="white"/>
<path d="M310 125V135H320V125H310Z" fill="white"/>
<path d="M330 115V125H340V115H330Z" fill="white"/>
<path d="M300 135V145H310V135H300Z" fill="white"/>
<path d="M320 135V145H330V135H320Z" fill="white"/>
<path d="M350 75V85H360V75H350Z" fill="white"/>
<path d="M370 65V75H380V65H370Z" fill="white"/>
<path d="M340 85V95H350V85H340Z" fill="white"/>
<path d="M360 85V95H370V85H360Z" fill="white"/>
<path d="M350 105V115H360V105H350Z" fill="white"/>
<path d="M370 95V105H380V95H370Z" fill="white"/>
<path d="M340 115V125H350V115H340Z" fill="white"/>
<path d="M360 115V125H370V115H360Z" fill="white"/>
<path d="M360 125V135H370V125H360Z" fill="white"/>
<path d="M70 165H80V155H70V165Z" fill="white"/>
<path d="M110 165V155H100V165H110Z" fill="white"/>
<path d="M20 165V155H10V165H20Z" fill="white"/>
<path d="M10 165V155H0V165H10Z" fill="white"/>
<path d="M60 165V155H50V165H60Z" fill="white"/>
<path d="M40 165V155H30V165H40Z" fill="white"/>
<path d="M140 165V155H130V165H140Z" fill="white"/>
<path d="M120 165V155H110V165H120Z" fill="white"/>
<path d="M260 165V155H250V165H260Z" fill="white"/>
<path d="M240 165V155H230V165H240Z" fill="white"/>
<path d="M360 155H350V165H360V155Z" fill="white"/>
<path d="M100 165V155H90V165H100Z" fill="white"/>
<path d="M160 165V155H150V165H160Z" fill="white"/>
<path d="M200 165V155H190V165H200Z" fill="white"/>
<path d="M210 155V165H220V155H210Z" fill="white"/>
<path d="M270 155V165H280V155H270Z" fill="white"/>
<path d="M320 155V165H330V155H320Z" fill="white"/>
<path d="M140 165H150V155H140V165Z" fill="white"/>
<path d="M180 155V145H170V155H180Z" fill="white"/>
<path d="M90 155V145H80V155H90Z" fill="white"/>
<path d="M80 155V145H70V155H80Z" fill="white"/>
<path d="M130 155V145H120V155H130Z" fill="white"/>
<path d="M110 155V145H100V155H110Z" fill="white"/>
<path d="M210 155V145H200V155H210Z" fill="white"/>
<path d="M190 155V145H180V155H190Z" fill="white"/>
<path d="M400 165V155H390V165H400Z" fill="white"/>
<path d="M310 155V145H300V155H310Z" fill="white"/>
<path d="M380 155H370V165H380V155Z" fill="white"/>
<path d="M170 155V145H160V155H170Z" fill="white"/>
<path d="M230 155V145H220V155H230Z" fill="white"/>
<path d="M270 155V145H260V155H270Z" fill="white"/>
<path d="M280 145V155H290V145H280Z" fill="white"/>
<path d="M340 155V165H350V155H340Z" fill="white"/>
<path d="M380 155V165H390V155H380Z" fill="white"/>
<path d="M380 145V155H390V145H380Z" fill="white"/>
<path d="M390 135V145H400V135H390Z" fill="white"/>
<path d="M40 165H50V155H40V165Z" fill="white"/>
<path d="M130 165V155H120V165H130Z" fill="white"/>
<path d="M20 155V145H10V155H20Z" fill="white"/>
<path d="M10 155V145H0V155H10Z" fill="white"/>
<path d="M60 155V145H50V155H60Z" fill="white"/>
<path d="M40 155V145H30V155H40Z" fill="white"/>
<path d="M140 145V135H130V145H140Z" fill="white"/>
<path d="M120 155V145H110V155H120Z" fill="white"/>
<path d="M250 165V155H240V165H250Z" fill="white"/>
<path d="M240 145V135H230V145H240Z" fill="white"/>
<path d="M340 145H330V155H340V145Z" fill="white"/>
<path d="M100 155V145H90V155H100Z" fill="white"/>
<path d="M180 165V155H170V165H180Z" fill="white"/>
<path d="M210 165V155H200V165H210Z" fill="white"/>
<path d="M210 145V155H220V145H210Z" fill="white"/>
<path d="M290 155V165H300V155H290Z" fill="white"/>
<path d="M300 155V165H310V155H300Z" fill="white"/>
<path d="M190 145H200V135H190V145Z" fill="white"/>
<path d="M380 155V145H370V155H380Z" fill="white"/>
<path d="M370 145H360V155H370V145Z" fill="white"/>
<path d="M330 155V165H340V155H330Z" fill="white"/>
<path d="M80 175H90V165H80V175Z" fill="white"/>
<path d="M110 175V165H100V175H110Z" fill="white"/>
<path d="M20 175V165H10V175H20Z" fill="white"/>
<path d="M30 175V165H20V175H30Z" fill="white"/>
<path d="M10 175V165H0V175H10Z" fill="white"/>
<path d="M60 175V165H50V175H60Z" fill="white"/>
<path d="M70 175V165H60V175H70Z" fill="white"/>
<path d="M40 175V165H30V175H40Z" fill="white"/>
<path d="M140 175V165H130V175H140Z" fill="white"/>
<path d="M120 175V165H110V175H120Z" fill="white"/>
<path d="M260 175V165H250V175H260Z" fill="white"/>
<path d="M230 175V165H220V175H230Z" fill="white"/>
<path d="M200 175V165H190V175H200Z" fill="white"/>
<path d="M360 165H350V175H360V165Z" fill="white"/>
<path d="M100 175V165H90V175H100Z" fill="white"/>
<path d="M170 175V165H160V175H170Z" fill="white"/>
<path d="M190 175V165H180V175H190Z" fill="white"/>
<path d="M210 165V175H220V165H210Z" fill="white"/>
<path d="M280 165V175H290V165H280Z" fill="white"/>
<path d="M260 165V175H270V165H260Z" fill="white"/>
<path d="M310 165V175H320V165H310Z" fill="white"/>
<path d="M140 175H150V165H140V175Z" fill="white"/>
<path d="M400 175V165H390V175H400Z" fill="white"/>
<path d="M380 165H370V175H380V165Z" fill="white"/>
<path d="M370 165H360V175H370V165Z" fill="white"/>
<path d="M340 165V175H350V165H340Z" fill="white"/>
<path d="M380 165V175H390V165H380Z" fill="white"/>
<path d="M40 175H50V165H40V175Z" fill="white"/>
<path d="M130 175V165H120V175H130Z" fill="white"/>
<path d="M250 175V165H240V175H250Z" fill="white"/>
<path d="M180 175V165H170V175H180Z" fill="white"/>
<path d="M210 175V165H200V175H210Z" fill="white"/>
<path d="M290 165V175H300V165H290Z" fill="white"/>
<path d="M300 165V175H310V165H300Z" fill="white"/>
<path d="M330 165V175H340V165H330Z" fill="white"/>
<path d="M350 145V155H360V145H350Z" fill="white"/>
<path d="M380 115V125H390V115H380Z" fill="white"/>
<path d="M350 135V145H360V135H350Z" fill="white"/>
<path d="M370 135V145H380V135H370Z" fill="white"/>
<path d="M100 65V75H110V65H100Z" fill="white"/>
<path d="M60 40V50H70V40H60Z" fill="white"/>
<path d="M40 65V75H50V65H40Z" fill="white"/>
<path d="M50 55V65H60V55H50Z" fill="white"/>
<path d="M470 105H480V95H470V105Z" fill="white"/>
<path d="M460 85H470V75H460V85Z" fill="white"/>
<path d="M480 115H490V105H480V115Z" fill="white"/>
<path d="M480 95H490V85H480V95Z" fill="white"/>
<path d="M500 125H510V115H500V125Z" fill="white"/>
<path d="M490 105H500V95H490V105Z" fill="white"/>
<path d="M510 135H520V125H510V135Z" fill="white"/>
<path d="M510 115H520V105H510V115Z" fill="white"/>
<path d="M520 115H530V105H520V115Z" fill="white"/>
<path d="M510 95H520V85H510V95Z" fill="white"/>
<path d="M660 75H670V65H660V75Z" fill="white"/>
<path d="M530 105H540V95H530V105Z" fill="white"/>
<path d="M570 125V115H560V125H570Z" fill="white"/>
<path d="M550 135V125H540V135H550Z" fill="white"/>
<path d="M580 115V105H570V115H580Z" fill="white"/>
<path d="M560 115V105H550V115H560Z" fill="white"/>
<path d="M460 135V125H450V135H460Z" fill="white"/>
<path d="M440 145V135H430V145H440Z" fill="white"/>
<path d="M470 125V115H460V125H470Z" fill="white"/>
<path d="M450 125V115H440V125H450Z" fill="white"/>
<path d="M450 115V105H440V115H450Z" fill="white"/>
<path d="M430 125V115H420V125H430Z" fill="white"/>
<path d="M460 105V95H450V105H460Z" fill="white"/>
<path d="M440 105V95H430V105H440Z" fill="white"/>
<path d="M430 105V95H420V105H430Z" fill="white"/>
<path d="M410 115V105H400V115H410Z" fill="white"/>
<path d="M440 95V85H430V95H440Z" fill="white"/>
<path d="M420 95V85H410V95H420Z" fill="white"/>
<path d="M450 135V125H440V135H450Z" fill="white"/>
<path d="M430 145V135H420V145H430Z" fill="white"/>
<path d="M460 125V115H450V125H460Z" fill="white"/>
<path d="M440 125V115H430V125H440Z" fill="white"/>
<path d="M490 145V135H480V145H490Z" fill="white"/>
<path d="M470 155V145H460V155H470Z" fill="white"/>
<path d="M500 135V125H490V135H500Z" fill="white"/>
<path d="M480 135V125H470V135H480Z" fill="white"/>
<path d="M570 145V135H560V145H570Z" fill="white"/>
<path d="M550 155V145H540V155H550Z" fill="white"/>
<path d="M580 135V125H570V135H580Z" fill="white"/>
<path d="M560 135V125H550V135H560Z" fill="white"/>
<path d="M690 145V135H680V145H690Z" fill="white"/>
<path d="M670 155V145H660V155H670Z" fill="white"/>
<path d="M700 135V125H690V135H700Z" fill="white"/>
<path d="M680 135V125H670V135H680Z" fill="white"/>
<path d="M800 95H790V105H800V95Z" fill="white"/>
<path d="M800 125H790V135H800V125Z" fill="white"/>
<path d="M790 85H780V95H790V85Z" fill="white"/>
<path d="M790 105H780V115H790V105Z" fill="white"/>
<path d="M540 135V125H530V135H540Z" fill="white"/>
<path d="M520 145V135H510V145H520Z" fill="white"/>
<path d="M550 125V115H540V125H550Z" fill="white"/>
<path d="M530 125V115H520V125H530Z" fill="white"/>
<path d="M600 135V125H590V135H600Z" fill="white"/>
<path d="M580 145V135H570V145H580Z" fill="white"/>
<path d="M610 125V115H600V125H610Z" fill="white"/>
<path d="M590 125V115H580V125H590Z" fill="white"/>
<path d="M640 135V125H630V135H640Z" fill="white"/>
<path d="M620 145V135H610V145H620Z" fill="white"/>
<path d="M650 125V115H640V125H650Z" fill="white"/>
<path d="M630 125V115H620V125H630Z" fill="white"/>
<path d="M640 115V105H630V115H640Z" fill="white"/>
<path d="M620 125V115H610V125H620Z" fill="white"/>
<path d="M650 105V95H640V105H650Z" fill="white"/>
<path d="M630 105V95H620V105H630Z" fill="white"/>
<path d="M591 85V95H601V85H591Z" fill="white"/>
<path d="M611 75V85H621V75H611Z" fill="white"/>
<path d="M581 95V105H591V95H581Z" fill="white"/>
<path d="M601 95V105H611V95H601Z" fill="white"/>
<path d="M650 125V135H660V125H650Z" fill="white"/>
<path d="M670 115V125H680V115H670Z" fill="white"/>
<path d="M640 135V145H650V135H640Z" fill="white"/>
<path d="M660 135V145H670V135H660Z" fill="white"/>
<path d="M780 20H790V10H780V20Z" fill="white"/>
<path d="M410 10H420V0H410V10Z" fill="white"/>
<path d="M430 40H440V30H430V40Z" fill="white"/>
<path d="M490 35H500V25H490V35Z" fill="white"/>
<path d="M561 75H571V65H561V75Z" fill="white"/>
<path d="M551 55H561V45H551V55Z" fill="white"/>
<path d="M571 85H581V75H571V85Z" fill="white"/>
<path d="M571 65H581V55H571V65Z" fill="white"/>
<path d="M690 95V105H700V95H690Z" fill="white"/>
<path d="M710 85V95H720V85H710Z" fill="white"/>
<path d="M680 105V115H690V105H680Z" fill="white"/>
<path d="M700 105V115H710V105H700Z" fill="white"/>
<path d="M730 50V60H740V50H730Z" fill="white"/>
<path d="M750 40V50H760V40H750Z" fill="white"/>
<path d="M720 60V70H730V60H720Z" fill="white"/>
<path d="M740 60V70H750V60H740Z" fill="white"/>
<path d="M710 105V115H720V105H710Z" fill="white"/>
<path d="M730 95V105H740V95H730Z" fill="white"/>
<path d="M700 115V125H710V115H700Z" fill="white"/>
<path d="M720 115V125H730V115H720Z" fill="white"/>
<path d="M710 125V135H720V125H710Z" fill="white"/>
<path d="M730 115V125H740V115H730Z" fill="white"/>
<path d="M700 135V145H710V135H700Z" fill="white"/>
<path d="M720 135V145H730V135H720Z" fill="white"/>
<path d="M750 75V85H760V75H750Z" fill="white"/>
<path d="M770 65V75H780V65H770Z" fill="white"/>
<path d="M740 85V95H750V85H740Z" fill="white"/>
<path d="M760 85V95H770V85H760Z" fill="white"/>
<path d="M750 105V115H760V105H750Z" fill="white"/>
<path d="M770 95V105H780V95H770Z" fill="white"/>
<path d="M740 115V125H750V115H740Z" fill="white"/>
<path d="M760 115V125H770V115H760Z" fill="white"/>
<path d="M760 125V135H770V125H760Z" fill="white"/>
<path d="M470 165H480V155H470V165Z" fill="white"/>
<path d="M510 165V155H500V165H510Z" fill="white"/>
<path d="M420 165V155H410V165H420Z" fill="white"/>
<path d="M410 165V155H400V165H410Z" fill="white"/>
<path d="M460 165V155H450V165H460Z" fill="white"/>
<path d="M440 165V155H430V165H440Z" fill="white"/>
<path d="M540 165V155H530V165H540Z" fill="white"/>
<path d="M520 165V155H510V165H520Z" fill="white"/>
<path d="M660 165V155H650V165H660Z" fill="white"/>
<path d="M640 165V155H630V165H640Z" fill="white"/>
<path d="M760 155H750V165H760V155Z" fill="white"/>
<path d="M500 165V155H490V165H500Z" fill="white"/>
<path d="M560 165V155H550V165H560Z" fill="white"/>
<path d="M600 165V155H590V165H600Z" fill="white"/>
<path d="M610 155V165H620V155H610Z" fill="white"/>
<path d="M670 155V165H680V155H670Z" fill="white"/>
<path d="M720 155V165H730V155H720Z" fill="white"/>
<path d="M540 165H550V155H540V165Z" fill="white"/>
<path d="M580 155V145H570V155H580Z" fill="white"/>
<path d="M490 155V145H480V155H490Z" fill="white"/>
<path d="M480 155V145H470V155H480Z" fill="white"/>
<path d="M530 155V145H520V155H530Z" fill="white"/>
<path d="M510 155V145H500V155H510Z" fill="white"/>
<path d="M610 155V145H600V155H610Z" fill="white"/>
<path d="M590 155V145H580V155H590Z" fill="white"/>
<path d="M800 165V155H790V165H800Z" fill="white"/>
<path d="M710 155V145H700V155H710Z" fill="white"/>
<path d="M780 155H770V165H780V155Z" fill="white"/>
<path d="M570 155V145H560V155H570Z" fill="white"/>
<path d="M630 155V145H620V155H630Z" fill="white"/>
<path d="M670 155V145H660V155H670Z" fill="white"/>
<path d="M680 145V155H690V145H680Z" fill="white"/>
<path d="M740 155V165H750V155H740Z" fill="white"/>
<path d="M780 155V165H790V155H780Z" fill="white"/>
<path d="M780 145V155H790V145H780Z" fill="white"/>
<path d="M790 135V145H800V135H790Z" fill="white"/>
<path d="M440 165H450V155H440V165Z" fill="white"/>
<path d="M530 165V155H520V165H530Z" fill="white"/>
<path d="M420 155V145H410V155H420Z" fill="white"/>
<path d="M410 155V145H400V155H410Z" fill="white"/>
<path d="M460 155V145H450V155H460Z" fill="white"/>
<path d="M440 155V145H430V155H440Z" fill="white"/>
<path d="M540 145V135H530V145H540Z" fill="white"/>
<path d="M520 155V145H510V155H520Z" fill="white"/>
<path d="M650 165V155H640V165H650Z" fill="white"/>
<path d="M640 145V135H630V145H640Z" fill="white"/>
<path d="M740 145H730V155H740V145Z" fill="white"/>
<path d="M500 155V145H490V155H500Z" fill="white"/>
<path d="M580 165V155H570V165H580Z" fill="white"/>
<path d="M610 165V155H600V165H610Z" fill="white"/>
<path d="M610 145V155H620V145H610Z" fill="white"/>
<path d="M690 155V165H700V155H690Z" fill="white"/>
<path d="M700 155V165H710V155H700Z" fill="white"/>
<path d="M590 145H600V135H590V145Z" fill="white"/>
<path d="M780 155V145H770V155H780Z" fill="white"/>
<path d="M770 145H760V155H770V145Z" fill="white"/>
<path d="M730 155V165H740V155H730Z" fill="white"/>
<path d="M480 175H490V165H480V175Z" fill="white"/>
<path d="M510 175V165H500V175H510Z" fill="white"/>
<path d="M420 175V165H410V175H420Z" fill="white"/>
<path d="M430 175V165H420V175H430Z" fill="white"/>
<path d="M410 175V165H400V175H410Z" fill="white"/>
<path d="M460 175V165H450V175H460Z" fill="white"/>
<path d="M470 175V165H460V175H470Z" fill="white"/>
<path d="M440 175V165H430V175H440Z" fill="white"/>
<path d="M540 175V165H530V175H540Z" fill="white"/>
<path d="M520 175V165H510V175H520Z" fill="white"/>
<path d="M660 175V165H650V175H660Z" fill="white"/>
<path d="M630 175V165H620V175H630Z" fill="white"/>
<path d="M600 175V165H590V175H600Z" fill="white"/>
<path d="M760 165H750V175H760V165Z" fill="white"/>
<path d="M500 175V165H490V175H500Z" fill="white"/>
<path d="M570 175V165H560V175H570Z" fill="white"/>
<path d="M590 175V165H580V175H590Z" fill="white"/>
<path d="M610 165V175H620V165H610Z" fill="white"/>
<path d="M680 165V175H690V165H680Z" fill="white"/>
<path d="M660 165V175H670V165H660Z" fill="white"/>
<path d="M710 165V175H720V165H710Z" fill="white"/>
<path d="M540 175H550V165H540V175Z" fill="white"/>
<path d="M800 175V165H790V175H800Z" fill="white"/>
<path d="M780 165H770V175H780V165Z" fill="white"/>
<path d="M770 165H760V175H770V165Z" fill="white"/>
<path d="M740 165V175H750V165H740Z" fill="white"/>
<path d="M780 165V175H790V165H780Z" fill="white"/>
<path d="M440 175H450V165H440V175Z" fill="white"/>
<path d="M530 175V165H520V175H530Z" fill="white"/>
<path d="M650 175V165H640V175H650Z" fill="white"/>
<path d="M580 175V165H570V175H580Z" fill="white"/>
<path d="M610 175V165H600V175H610Z" fill="white"/>
<path d="M690 165V175H700V165H690Z" fill="white"/>
<path d="M700 165V175H710V165H700Z" fill="white"/>
<path d="M730 165V175H740V165H730Z" fill="white"/>
<path d="M750 145V155H760V145H750Z" fill="white"/>
<path d="M780 115V125H790V115H780Z" fill="white"/>
<path d="M750 135V145H760V135H750Z" fill="white"/>
<path d="M770 135V145H780V135H770Z" fill="white"/>
<path d="M500 65V75H510V65H500Z" fill="white"/>
<path d="M460 40V50H470V40H460Z" fill="white"/>
<path d="M440 65V75H450V65H440Z" fill="white"/>
<path d="M450 55V65H460V55H450Z" fill="white"/>
<path d="M870 105H880V95H870V105Z" fill="white"/>
<path d="M860 85H870V75H860V85Z" fill="white"/>
<path d="M880 115H890V105H880V115Z" fill="white"/>
<path d="M880 95H890V85H880V95Z" fill="white"/>
<path d="M900 125H910V115H900V125Z" fill="white"/>
<path d="M890 105H900V95H890V105Z" fill="white"/>
<path d="M910 135H920V125H910V135Z" fill="white"/>
<path d="M910 115H920V105H910V115Z" fill="white"/>
<path d="M920 115H930V105H920V115Z" fill="white"/>
<path d="M910 95H920V85H910V95Z" fill="white"/>
<path d="M1060 75H1070V65H1060V75Z" fill="white"/>
<path d="M930 105H940V95H930V105Z" fill="white"/>
<path d="M970 125V115H960V125H970Z" fill="white"/>
<path d="M950 135V125H940V135H950Z" fill="white"/>
<path d="M980 115V105H970V115H980Z" fill="white"/>
<path d="M960 115V105H950V115H960Z" fill="white"/>
<path d="M860 135V125H850V135H860Z" fill="white"/>
<path d="M840 145V135H830V145H840Z" fill="white"/>
<path d="M870 125V115H860V125H870Z" fill="white"/>
<path d="M850 125V115H840V125H850Z" fill="white"/>
<path d="M850 115V105H840V115H850Z" fill="white"/>
<path d="M830 125V115H820V125H830Z" fill="white"/>
<path d="M860 105V95H850V105H860Z" fill="white"/>
<path d="M840 105V95H830V105H840Z" fill="white"/>
<path d="M830 105V95H820V105H830Z" fill="white"/>
<path d="M810 115V105H800V115H810Z" fill="white"/>
<path d="M840 95V85H830V95H840Z" fill="white"/>
<path d="M820 95V85H810V95H820Z" fill="white"/>
<path d="M850 135V125H840V135H850Z" fill="white"/>
<path d="M830 145V135H820V145H830Z" fill="white"/>
<path d="M860 125V115H850V125H860Z" fill="white"/>
<path d="M840 125V115H830V125H840Z" fill="white"/>
<path d="M890 145V135H880V145H890Z" fill="white"/>
<path d="M870 155V145H860V155H870Z" fill="white"/>
<path d="M900 135V125H890V135H900Z" fill="white"/>
<path d="M880 135V125H870V135H880Z" fill="white"/>
<path d="M970 145V135H960V145H970Z" fill="white"/>
<path d="M950 155V145H940V155H950Z" fill="white"/>
<path d="M980 135V125H970V135H980Z" fill="white"/>
<path d="M960 135V125H950V135H960Z" fill="white"/>
<path d="M1090 145V135H1080V145H1090Z" fill="white"/>
<path d="M1070 155V145H1060V155H1070Z" fill="white"/>
<path d="M1100 135V125H1090V135H1100Z" fill="white"/>
<path d="M1080 135V125H1070V135H1080Z" fill="white"/>
<path d="M1200 95H1190V105H1200V95Z" fill="white"/>
<path d="M1200 125H1190V135H1200V125Z" fill="white"/>
<path d="M1190 85H1180V95H1190V85Z" fill="white"/>
<path d="M1190 105H1180V115H1190V105Z" fill="white"/>
<path d="M940 135V125H930V135H940Z" fill="white"/>
<path d="M920 145V135H910V145H920Z" fill="white"/>
<path d="M950 125V115H940V125H950Z" fill="white"/>
<path d="M930 125V115H920V125H930Z" fill="white"/>
<path d="M1000 135V125H990V135H1000Z" fill="white"/>
<path d="M980 145V135H970V145H980Z" fill="white"/>
<path d="M1010 125V115H1000V125H1010Z" fill="white"/>
<path d="M990 125V115H980V125H990Z" fill="white"/>
<path d="M1040 135V125H1030V135H1040Z" fill="white"/>
<path d="M1020 145V135H1010V145H1020Z" fill="white"/>
<path d="M1050 125V115H1040V125H1050Z" fill="white"/>
<path d="M1030 125V115H1020V125H1030Z" fill="white"/>
<path d="M1040 115V105H1030V115H1040Z" fill="white"/>
<path d="M1020 125V115H1010V125H1020Z" fill="white"/>
<path d="M1050 105V95H1040V105H1050Z" fill="white"/>
<path d="M1030 105V95H1020V105H1030Z" fill="white"/>
<path d="M991 85V95H1001V85H991Z" fill="white"/>
<path d="M1011 75V85H1021V75H1011Z" fill="white"/>
<path d="M981 95V105H991V95H981Z" fill="white"/>
<path d="M1001 95V105H1011V95H1001Z" fill="white"/>
<path d="M1050 125V135H1060V125H1050Z" fill="white"/>
<path d="M1070 115V125H1080V115H1070Z" fill="white"/>
<path d="M1040 135V145H1050V135H1040Z" fill="white"/>
<path d="M1060 135V145H1070V135H1060Z" fill="white"/>
<path d="M1180 20H1190V10H1180V20Z" fill="white"/>
<path d="M810 10H820V0H810V10Z" fill="white"/>
<path d="M830 40H840V30H830V40Z" fill="white"/>
<path d="M890 35H900V25H890V35Z" fill="white"/>
<path d="M961 75H971V65H961V75Z" fill="white"/>
<path d="M951 55H961V45H951V55Z" fill="white"/>
<path d="M971 85H981V75H971V85Z" fill="white"/>
<path d="M971 65H981V55H971V65Z" fill="white"/>
<path d="M1090 95V105H1100V95H1090Z" fill="white"/>
<path d="M1110 85V95H1120V85H1110Z" fill="white"/>
<path d="M1080 105V115H1090V105H1080Z" fill="white"/>
<path d="M1100 105V115H1110V105H1100Z" fill="white"/>
<path d="M1130 50V60H1140V50H1130Z" fill="white"/>
<path d="M1150 40V50H1160V40H1150Z" fill="white"/>
<path d="M1120 60V70H1130V60H1120Z" fill="white"/>
<path d="M1140 60V70H1150V60H1140Z" fill="white"/>
<path d="M1110 105V115H1120V105H1110Z" fill="white"/>
<path d="M1130 95V105H1140V95H1130Z" fill="white"/>
<path d="M1100 115V125H1110V115H1100Z" fill="white"/>
<path d="M1120 115V125H1130V115H1120Z" fill="white"/>
<path d="M1110 125V135H1120V125H1110Z" fill="white"/>
<path d="M1130 115V125H1140V115H1130Z" fill="white"/>
<path d="M1100 135V145H1110V135H1100Z" fill="white"/>
<path d="M1120 135V145H1130V135H1120Z" fill="white"/>
<path d="M1150 75V85H1160V75H1150Z" fill="white"/>
<path d="M1170 65V75H1180V65H1170Z" fill="white"/>
<path d="M1140 85V95H1150V85H1140Z" fill="white"/>
<path d="M1160 85V95H1170V85H1160Z" fill="white"/>
<path d="M1150 105V115H1160V105H1150Z" fill="white"/>
<path d="M1170 95V105H1180V95H1170Z" fill="white"/>
<path d="M1140 115V125H1150V115H1140Z" fill="white"/>
<path d="M1160 115V125H1170V115H1160Z" fill="white"/>
<path d="M1160 125V135H1170V125H1160Z" fill="white"/>
<path d="M870 165H880V155H870V165Z" fill="white"/>
<path d="M910 165V155H900V165H910Z" fill="white"/>
<path d="M820 165V155H810V165H820Z" fill="white"/>
<path d="M810 165V155H800V165H810Z" fill="white"/>
<path d="M860 165V155H850V165H860Z" fill="white"/>
<path d="M840 165V155H830V165H840Z" fill="white"/>
<path d="M940 165V155H930V165H940Z" fill="white"/>
<path d="M920 165V155H910V165H920Z" fill="white"/>
<path d="M1060 165V155H1050V165H1060Z" fill="white"/>
<path d="M1040 165V155H1030V165H1040Z" fill="white"/>
<path d="M1160 155H1150V165H1160V155Z" fill="white"/>
<path d="M900 165V155H890V165H900Z" fill="white"/>
<path d="M960 165V155H950V165H960Z" fill="white"/>
<path d="M1000 165V155H990V165H1000Z" fill="white"/>
<path d="M1010 155V165H1020V155H1010Z" fill="white"/>
<path d="M1070 155V165H1080V155H1070Z" fill="white"/>
<path d="M1120 155V165H1130V155H1120Z" fill="white"/>
<path d="M940 165H950V155H940V165Z" fill="white"/>
<path d="M980 155V145H970V155H980Z" fill="white"/>
<path d="M890 155V145H880V155H890Z" fill="white"/>
<path d="M880 155V145H870V155H880Z" fill="white"/>
<path d="M930 155V145H920V155H930Z" fill="white"/>
<path d="M910 155V145H900V155H910Z" fill="white"/>
<path d="M1010 155V145H1000V155H1010Z" fill="white"/>
<path d="M990 155V145H980V155H990Z" fill="white"/>
<path d="M1200 165V155H1190V165H1200Z" fill="white"/>
<path d="M1110 155V145H1100V155H1110Z" fill="white"/>
<path d="M1180 155H1170V165H1180V155Z" fill="white"/>
<path d="M970 155V145H960V155H970Z" fill="white"/>
<path d="M1030 155V145H1020V155H1030Z" fill="white"/>
<path d="M1070 155V145H1060V155H1070Z" fill="white"/>
<path d="M1080 145V155H1090V145H1080Z" fill="white"/>
<path d="M1140 155V165H1150V155H1140Z" fill="white"/>
<path d="M1180 155V165H1190V155H1180Z" fill="white"/>
<path d="M1180 145V155H1190V145H1180Z" fill="white"/>
<path d="M1190 135V145H1200V135H1190Z" fill="white"/>
<path d="M840 165H850V155H840V165Z" fill="white"/>
<path d="M930 165V155H920V165H930Z" fill="white"/>
<path d="M820 155V145H810V155H820Z" fill="white"/>
<path d="M810 155V145H800V155H810Z" fill="white"/>
<path d="M860 155V145H850V155H860Z" fill="white"/>
<path d="M840 155V145H830V155H840Z" fill="white"/>
<path d="M940 145V135H930V145H940Z" fill="white"/>
<path d="M920 155V145H910V155H920Z" fill="white"/>
<path d="M1050 165V155H1040V165H1050Z" fill="white"/>
<path d="M1040 145V135H1030V145H1040Z" fill="white"/>
<path d="M1140 145H1130V155H1140V145Z" fill="white"/>
<path d="M900 155V145H890V155H900Z" fill="white"/>
<path d="M980 165V155H970V165H980Z" fill="white"/>
<path d="M1010 165V155H1000V165H1010Z" fill="white"/>
<path d="M1010 145V155H1020V145H1010Z" fill="white"/>
<path d="M1090 155V165H1100V155H1090Z" fill="white"/>
<path d="M1100 155V165H1110V155H1100Z" fill="white"/>
<path d="M990 145H1000V135H990V145Z" fill="white"/>
<path d="M1180 155V145H1170V155H1180Z" fill="white"/>
<path d="M1170 145H1160V155H1170V145Z" fill="white"/>
<path d="M1130 155V165H1140V155H1130Z" fill="white"/>
<path d="M880 175H890V165H880V175Z" fill="white"/>
<path d="M910 175V165H900V175H910Z" fill="white"/>
<path d="M820 175V165H810V175H820Z" fill="white"/>
<path d="M830 175V165H820V175H830Z" fill="white"/>
<path d="M810 175V165H800V175H810Z" fill="white"/>
<path d="M860 175V165H850V175H860Z" fill="white"/>
<path d="M870 175V165H860V175H870Z" fill="white"/>
<path d="M840 175V165H830V175H840Z" fill="white"/>
<path d="M940 175V165H930V175H940Z" fill="white"/>
<path d="M920 175V165H910V175H920Z" fill="white"/>
<path d="M1060 175V165H1050V175H1060Z" fill="white"/>
<path d="M1030 175V165H1020V175H1030Z" fill="white"/>
<path d="M1000 175V165H990V175H1000Z" fill="white"/>
<path d="M1160 165H1150V175H1160V165Z" fill="white"/>
<path d="M900 175V165H890V175H900Z" fill="white"/>
<path d="M970 175V165H960V175H970Z" fill="white"/>
<path d="M990 175V165H980V175H990Z" fill="white"/>
<path d="M1010 165V175H1020V165H1010Z" fill="white"/>
<path d="M1080 165V175H1090V165H1080Z" fill="white"/>
<path d="M1060 165V175H1070V165H1060Z" fill="white"/>
<path d="M1110 165V175H1120V165H1110Z" fill="white"/>
<path d="M940 175H950V165H940V175Z" fill="white"/>
<path d="M1200 175V165H1190V175H1200Z" fill="white"/>
<path d="M1180 165H1170V175H1180V165Z" fill="white"/>
<path d="M1170 165H1160V175H1170V165Z" fill="white"/>
<path d="M1140 165V175H1150V165H1140Z" fill="white"/>
<path d="M1180 165V175H1190V165H1180Z" fill="white"/>
<path d="M840 175H850V165H840V175Z" fill="white"/>
<path d="M930 175V165H920V175H930Z" fill="white"/>
<path d="M1050 175V165H1040V175H1050Z" fill="white"/>
<path d="M980 175V165H970V175H980Z" fill="white"/>
<path d="M1010 175V165H1000V175H1010Z" fill="white"/>
<path d="M1090 165V175H1100V165H1090Z" fill="white"/>
<path d="M1100 165V175H1110V165H1100Z" fill="white"/>
<path d="M1130 165V175H1140V165H1130Z" fill="white"/>
<path d="M1150 145V155H1160V145H1150Z" fill="white"/>
<path d="M1180 115V125H1190V115H1180Z" fill="white"/>
<path d="M1150 135V145H1160V135H1150Z" fill="white"/>
<path d="M1170 135V145H1180V135H1170Z" fill="white"/>
<path d="M900 65V75H910V65H900Z" fill="white"/>
<path d="M860 40V50H870V40H860Z" fill="white"/>
<path d="M840 65V75H850V65H840Z" fill="white"/>
<path d="M850 55V65H860V55H850Z" fill="white"/>
<path d="M1270 105H1280V95H1270V105Z" fill="white"/>
<path d="M1260 85H1270V75H1260V85Z" fill="white"/>
<path d="M1280 115H1290V105H1280V115Z" fill="white"/>
<path d="M1280 95H1290V85H1280V95Z" fill="white"/>
<path d="M1300 125H1310V115H1300V125Z" fill="white"/>
<path d="M1290 105H1300V95H1290V105Z" fill="white"/>
<path d="M1310 135H1320V125H1310V135Z" fill="white"/>
<path d="M1310 115H1320V105H1310V115Z" fill="white"/>
<path d="M1320 115H1330V105H1320V115Z" fill="white"/>
<path d="M1310 95H1320V85H1310V95Z" fill="white"/>
<path d="M1460 75H1470V65H1460V75Z" fill="white"/>
<path d="M1330 105H1340V95H1330V105Z" fill="white"/>
<path d="M1370 125V115H1360V125H1370Z" fill="white"/>
<path d="M1350 135V125H1340V135H1350Z" fill="white"/>
<path d="M1380 115V105H1370V115H1380Z" fill="white"/>
<path d="M1360 115V105H1350V115H1360Z" fill="white"/>
<path d="M1260 135V125H1250V135H1260Z" fill="white"/>
<path d="M1240 145V135H1230V145H1240Z" fill="white"/>
<path d="M1270 125V115H1260V125H1270Z" fill="white"/>
<path d="M1250 125V115H1240V125H1250Z" fill="white"/>
<path d="M1250 115V105H1240V115H1250Z" fill="white"/>
<path d="M1230 125V115H1220V125H1230Z" fill="white"/>
<path d="M1260 105V95H1250V105H1260Z" fill="white"/>
<path d="M1240 105V95H1230V105H1240Z" fill="white"/>
<path d="M1230 105V95H1220V105H1230Z" fill="white"/>
<path d="M1210 115V105H1200V115H1210Z" fill="white"/>
<path d="M1240 95V85H1230V95H1240Z" fill="white"/>
<path d="M1220 95V85H1210V95H1220Z" fill="white"/>
<path d="M1250 135V125H1240V135H1250Z" fill="white"/>
<path d="M1230 145V135H1220V145H1230Z" fill="white"/>
<path d="M1260 125V115H1250V125H1260Z" fill="white"/>
<path d="M1240 125V115H1230V125H1240Z" fill="white"/>
<path d="M1290 145V135H1280V145H1290Z" fill="white"/>
<path d="M1270 155V145H1260V155H1270Z" fill="white"/>
<path d="M1300 135V125H1290V135H1300Z" fill="white"/>
<path d="M1280 135V125H1270V135H1280Z" fill="white"/>
<path d="M1370 145V135H1360V145H1370Z" fill="white"/>
<path d="M1350 155V145H1340V155H1350Z" fill="white"/>
<path d="M1380 135V125H1370V135H1380Z" fill="white"/>
<path d="M1360 135V125H1350V135H1360Z" fill="white"/>
<path d="M1490 145V135H1480V145H1490Z" fill="white"/>
<path d="M1470 155V145H1460V155H1470Z" fill="white"/>
<path d="M1500 135V125H1490V135H1500Z" fill="white"/>
<path d="M1480 135V125H1470V135H1480Z" fill="white"/>
<path d="M1600 95H1590V105H1600V95Z" fill="white"/>
<path d="M1600 125H1590V135H1600V125Z" fill="white"/>
<path d="M1590 85H1580V95H1590V85Z" fill="white"/>
<path d="M1590 105H1580V115H1590V105Z" fill="white"/>
<path d="M1340 135V125H1330V135H1340Z" fill="white"/>
<path d="M1320 145V135H1310V145H1320Z" fill="white"/>
<path d="M1350 125V115H1340V125H1350Z" fill="white"/>
<path d="M1330 125V115H1320V125H1330Z" fill="white"/>
<path d="M1400 135V125H1390V135H1400Z" fill="white"/>
<path d="M1380 145V135H1370V145H1380Z" fill="white"/>
<path d="M1410 125V115H1400V125H1410Z" fill="white"/>
<path d="M1390 125V115H1380V125H1390Z" fill="white"/>
<path d="M1440 135V125H1430V135H1440Z" fill="white"/>
<path d="M1420 145V135H1410V145H1420Z" fill="white"/>
<path d="M1450 125V115H1440V125H1450Z" fill="white"/>
<path d="M1430 125V115H1420V125H1430Z" fill="white"/>
<path d="M1440 115V105H1430V115H1440Z" fill="white"/>
<path d="M1420 125V115H1410V125H1420Z" fill="white"/>
<path d="M1450 105V95H1440V105H1450Z" fill="white"/>
<path d="M1430 105V95H1420V105H1430Z" fill="white"/>
<path d="M1391 85V95H1401V85H1391Z" fill="white"/>
<path d="M1411 75V85H1421V75H1411Z" fill="white"/>
<path d="M1381 95V105H1391V95H1381Z" fill="white"/>
<path d="M1401 95V105H1411V95H1401Z" fill="white"/>
<path d="M1450 125V135H1460V125H1450Z" fill="white"/>
<path d="M1470 115V125H1480V115H1470Z" fill="white"/>
<path d="M1440 135V145H1450V135H1440Z" fill="white"/>
<path d="M1460 135V145H1470V135H1460Z" fill="white"/>
<path d="M1580 20H1590V10H1580V20Z" fill="white"/>
<path d="M1210 10H1220V0H1210V10Z" fill="white"/>
<path d="M1230 40H1240V30H1230V40Z" fill="white"/>
<path d="M1290 35H1300V25H1290V35Z" fill="white"/>
<path d="M1361 75H1371V65H1361V75Z" fill="white"/>
<path d="M1351 55H1361V45H1351V55Z" fill="white"/>
<path d="M1371 85H1381V75H1371V85Z" fill="white"/>
<path d="M1371 65H1381V55H1371V65Z" fill="white"/>
<path d="M1490 95V105H1500V95H1490Z" fill="white"/>
<path d="M1510 85V95H1520V85H1510Z" fill="white"/>
<path d="M1480 105V115H1490V105H1480Z" fill="white"/>
<path d="M1500 105V115H1510V105H1500Z" fill="white"/>
<path d="M1530 50V60H1540V50H1530Z" fill="white"/>
<path d="M1550 40V50H1560V40H1550Z" fill="white"/>
<path d="M1520 60V70H1530V60H1520Z" fill="white"/>
<path d="M1540 60V70H1550V60H1540Z" fill="white"/>
<path d="M1510 105V115H1520V105H1510Z" fill="white"/>
<path d="M1530 95V105H1540V95H1530Z" fill="white"/>
<path d="M1500 115V125H1510V115H1500Z" fill="white"/>
<path d="M1520 115V125H1530V115H1520Z" fill="white"/>
<path d="M1510 125V135H1520V125H1510Z" fill="white"/>
<path d="M1530 115V125H1540V115H1530Z" fill="white"/>
<path d="M1500 135V145H1510V135H1500Z" fill="white"/>
<path d="M1520 135V145H1530V135H1520Z" fill="white"/>
<path d="M1550 75V85H1560V75H1550Z" fill="white"/>
<path d="M1570 65V75H1580V65H1570Z" fill="white"/>
<path d="M1540 85V95H1550V85H1540Z" fill="white"/>
<path d="M1560 85V95H1570V85H1560Z" fill="white"/>
<path d="M1550 105V115H1560V105H1550Z" fill="white"/>
<path d="M1570 95V105H1580V95H1570Z" fill="white"/>
<path d="M1540 115V125H1550V115H1540Z" fill="white"/>
<path d="M1560 115V125H1570V115H1560Z" fill="white"/>
<path d="M1560 125V135H1570V125H1560Z" fill="white"/>
<path d="M1270 165H1280V155H1270V165Z" fill="white"/>
<path d="M1310 165V155H1300V165H1310Z" fill="white"/>
<path d="M1220 165V155H1210V165H1220Z" fill="white"/>
<path d="M1210 165V155H1200V165H1210Z" fill="white"/>
<path d="M1260 165V155H1250V165H1260Z" fill="white"/>
<path d="M1240 165V155H1230V165H1240Z" fill="white"/>
<path d="M1340 165V155H1330V165H1340Z" fill="white"/>
<path d="M1320 165V155H1310V165H1320Z" fill="white"/>
<path d="M1460 165V155H1450V165H1460Z" fill="white"/>
<path d="M1440 165V155H1430V165H1440Z" fill="white"/>
<path d="M1560 155H1550V165H1560V155Z" fill="white"/>
<path d="M1300 165V155H1290V165H1300Z" fill="white"/>
<path d="M1360 165V155H1350V165H1360Z" fill="white"/>
<path d="M1400 165V155H1390V165H1400Z" fill="white"/>
<path d="M1410 155V165H1420V155H1410Z" fill="white"/>
<path d="M1470 155V165H1480V155H1470Z" fill="white"/>
<path d="M1520 155V165H1530V155H1520Z" fill="white"/>
<path d="M1340 165H1350V155H1340V165Z" fill="white"/>
<path d="M1380 155V145H1370V155H1380Z" fill="white"/>
<path d="M1290 155V145H1280V155H1290Z" fill="white"/>
<path d="M1280 155V145H1270V155H1280Z" fill="white"/>
<path d="M1330 155V145H1320V155H1330Z" fill="white"/>
<path d="M1310 155V145H1300V155H1310Z" fill="white"/>
<path d="M1410 155V145H1400V155H1410Z" fill="white"/>
<path d="M1390 155V145H1380V155H1390Z" fill="white"/>
<path d="M1600 165V155H1590V165H1600Z" fill="white"/>
<path d="M1510 155V145H1500V155H1510Z" fill="white"/>
<path d="M1580 155H1570V165H1580V155Z" fill="white"/>
<path d="M1370 155V145H1360V155H1370Z" fill="white"/>
<path d="M1430 155V145H1420V155H1430Z" fill="white"/>
<path d="M1470 155V145H1460V155H1470Z" fill="white"/>
<path d="M1480 145V155H1490V145H1480Z" fill="white"/>
<path d="M1540 155V165H1550V155H1540Z" fill="white"/>
<path d="M1580 155V165H1590V155H1580Z" fill="white"/>
<path d="M1580 145V155H1590V145H1580Z" fill="white"/>
<path d="M1590 135V145H1600V135H1590Z" fill="white"/>
<path d="M1240 165H1250V155H1240V165Z" fill="white"/>
<path d="M1330 165V155H1320V165H1330Z" fill="white"/>
<path d="M1220 155V145H1210V155H1220Z" fill="white"/>
<path d="M1210 155V145H1200V155H1210Z" fill="white"/>
<path d="M1260 155V145H1250V155H1260Z" fill="white"/>
<path d="M1240 155V145H1230V155H1240Z" fill="white"/>
<path d="M1340 145V135H1330V145H1340Z" fill="white"/>
<path d="M1320 155V145H1310V155H1320Z" fill="white"/>
<path d="M1450 165V155H1440V165H1450Z" fill="white"/>
<path d="M1440 145V135H1430V145H1440Z" fill="white"/>
<path d="M1540 145H1530V155H1540V145Z" fill="white"/>
<path d="M1300 155V145H1290V155H1300Z" fill="white"/>
<path d="M1380 165V155H1370V165H1380Z" fill="white"/>
<path d="M1410 165V155H1400V165H1410Z" fill="white"/>
<path d="M1410 145V155H1420V145H1410Z" fill="white"/>
<path d="M1490 155V165H1500V155H1490Z" fill="white"/>
<path d="M1500 155V165H1510V155H1500Z" fill="white"/>
<path d="M1390 145H1400V135H1390V145Z" fill="white"/>
<path d="M1580 155V145H1570V155H1580Z" fill="white"/>
<path d="M1570 145H1560V155H1570V145Z" fill="white"/>
<path d="M1530 155V165H1540V155H1530Z" fill="white"/>
<path d="M1280 175H1290V165H1280V175Z" fill="white"/>
<path d="M1310 175V165H1300V175H1310Z" fill="white"/>
<path d="M1220 175V165H1210V175H1220Z" fill="white"/>
<path d="M1230 175V165H1220V175H1230Z" fill="white"/>
<path d="M1210 175V165H1200V175H1210Z" fill="white"/>
<path d="M1260 175V165H1250V175H1260Z" fill="white"/>
<path d="M1270 175V165H1260V175H1270Z" fill="white"/>
<path d="M1240 175V165H1230V175H1240Z" fill="white"/>
<path d="M1340 175V165H1330V175H1340Z" fill="white"/>
<path d="M1320 175V165H1310V175H1320Z" fill="white"/>
<path d="M1460 175V165H1450V175H1460Z" fill="white"/>
<path d="M1430 175V165H1420V175H1430Z" fill="white"/>
<path d="M1400 175V165H1390V175H1400Z" fill="white"/>
<path d="M1560 165H1550V175H1560V165Z" fill="white"/>
<path d="M1300 175V165H1290V175H1300Z" fill="white"/>
<path d="M1370 175V165H1360V175H1370Z" fill="white"/>
<path d="M1390 175V165H1380V175H1390Z" fill="white"/>
<path d="M1410 165V175H1420V165H1410Z" fill="white"/>
<path d="M1480 165V175H1490V165H1480Z" fill="white"/>
<path d="M1460 165V175H1470V165H1460Z" fill="white"/>
<path d="M1510 165V175H1520V165H1510Z" fill="white"/>
<path d="M1340 175H1350V165H1340V175Z" fill="white"/>
<path d="M1600 175V165H1590V175H1600Z" fill="white"/>
<path d="M1580 165H1570V175H1580V165Z" fill="white"/>
<path d="M1570 165H1560V175H1570V165Z" fill="white"/>
<path d="M1540 165V175H1550V165H1540Z" fill="white"/>
<path d="M1580 165V175H1590V165H1580Z" fill="white"/>
<path d="M1240 175H1250V165H1240V175Z" fill="white"/>
<path d="M1330 175V165H1320V175H1330Z" fill="white"/>
<path d="M1450 175V165H1440V175H1450Z" fill="white"/>
<path d="M1380 175V165H1370V175H1380Z" fill="white"/>
<path d="M1410 175V165H1400V175H1410Z" fill="white"/>
<path d="M1490 165V175H1500V165H1490Z" fill="white"/>
<path d="M1500 165V175H1510V165H1500Z" fill="white"/>
<path d="M1530 165V175H1540V165H1530Z" fill="white"/>
<path d="M1550 145V155H1560V145H1550Z" fill="white"/>
<path d="M1580 115V125H1590V115H1580Z" fill="white"/>
<path d="M1550 135V145H1560V135H1550Z" fill="white"/>
<path d="M1570 135V145H1580V135H1570Z" fill="white"/>
<path d="M1300 65V75H1310V65H1300Z" fill="white"/>
<path d="M1260 40V50H1270V40H1260Z" fill="white"/>
<path d="M1240 65V75H1250V65H1240Z" fill="white"/>
<path d="M1250 55V65H1260V55H1250Z" fill="white"/>
</svg>
