<svg width="430" height="106" viewBox="0 0 430 106" fill="none" xmlns="http://www.w3.org/2000/svg">
<path d="M430 2.00004L248.811 2.00002C248.804 2.00001 248.797 2 248.79 2C248.782 2 248.775 2.00001 248.767 2.00002L0 2V0L430 3.57559e-05V2.00004Z" fill="black"/>
<path d="M239.055 8.00002L29.8057 8V10L238.302 10C238.48 9.30614 238.731 8.63948 239.055 8.00002Z" fill="black"/>
<path d="M29.8057 16V18L239.342 18C238.976 17.3639 238.683 16.6973 238.464 16L29.8057 16Z" fill="black"/>
<path d="M29.8057 24V26L340.446 26V24L29.8057 24Z" fill="black"/>
<path d="M358.252 24V26L386.271 26C384.442 25.0816 382.461 24.4149 380.326 24L358.252 24Z" fill="black"/>
<path d="M411.12 26C410.707 25.3169 410.277 24.6503 409.83 24L430 24V26L411.12 26Z" fill="black"/>
<path d="M414.153 32C414.426 32.6583 414.685 33.325 414.929 34H430V32H414.153Z" fill="black"/>
<path d="M416.667 40C416.814 40.6597 416.948 41.3264 417.071 42H430V40H416.667Z" fill="black"/>
<path d="M417.828 48C417.877 48.6607 417.915 49.3274 417.943 50H430V48H417.828Z" fill="black"/>
<path d="M417.921 56C417.888 56.6727 417.844 57.3394 417.79 58H430V56H417.921Z" fill="black"/>
<path d="M416.978 64C416.849 64.6737 416.708 65.3404 416.554 66H430V64H416.978Z" fill="black"/>
<path d="M414.747 72C414.494 72.6751 414.227 73.3418 413.944 74H430V72H414.747Z" fill="black"/>
<path d="M410.816 80C410.389 80.6835 409.945 81.3502 409.484 82H430V80H410.816Z" fill="black"/>
<path d="M404.249 88C403.505 88.6949 402.733 89.3616 401.932 90H430V88H404.249Z" fill="black"/>
<path d="M391.538 96C389.314 96.8574 386.97 97.524 384.509 98L430 98V96H391.538Z" fill="black"/>
<path d="M340.446 98V96H317.592C316.459 96.7423 315.238 97.409 313.929 98H340.446Z" fill="black"/>
<path d="M283.349 98C282.046 97.418 280.795 96.7513 279.596 96L257.626 96V98H283.349Z" fill="black"/>
<path d="M239.821 98V96H223.941V98H239.821Z" fill="black"/>
<path d="M207.454 98V96H201.083C200.041 96.7367 198.949 97.4034 197.807 98H207.454Z" fill="black"/>
<path d="M171.906 98C171.885 97.9894 171.864 97.9787 171.843 97.968C170.75 97.3857 169.718 96.7297 168.747 96L131.076 96C130.793 96.1761 130.506 96.3488 130.216 96.518C129.273 97.0614 128.301 97.5554 127.303 98L171.906 98Z" fill="black"/>
<path d="M96.9021 98C95.8903 97.5554 94.9047 97.0614 93.9452 96.518C93.6598 96.3488 93.3777 96.1761 93.099 96H73.1987V98H96.9021Z" fill="black"/>
<path d="M12 98V96H0V98H12Z" fill="black"/>
<path d="M12 90H0V88H12V90Z" fill="black"/>
<path d="M12 82H0V80H12V82Z" fill="black"/>
<path d="M12 74H0V72H12V74Z" fill="black"/>
<path d="M12 66H0V64H12V66Z" fill="black"/>
<path d="M12 58H0V56H12V58Z" fill="black"/>
<path d="M12 50H0V48H12V50Z" fill="black"/>
<path d="M12 42H0V40H12V42Z" fill="black"/>
<path d="M12 34H0V32L12 32V34Z" fill="black"/>
<path d="M12 26V24L0 24V26L12 26Z" fill="black"/>
<path d="M12 18V16L0 16V18L12 18Z" fill="black"/>
<path d="M12 10V8L0 8V10L12 10Z" fill="black"/>
<path d="M29.8057 32V34L94.7039 34C96.1178 33.226 97.5869 32.5593 99.1113 32L29.8057 32Z" fill="black"/>
<path d="M125.119 32C126.628 32.5593 128.078 33.226 129.47 34H158.917V32L125.119 32Z" fill="black"/>
<path d="M176.723 32V34H206.135V32H176.723Z" fill="black"/>
<path d="M223.941 32V34H239.821V32H223.941Z" fill="black"/>
<path d="M257.626 32V34L280.488 34C281.462 33.4342 282.497 32.918 283.594 32.4514C283.972 32.2939 284.355 32.1434 284.741 32L257.626 32Z" fill="black"/>
<path d="M310.227 32C311.637 32.5593 312.981 33.226 314.257 34H340.446V32L310.227 32Z" fill="black"/>
<path d="M358.252 32V34L395.247 34C394.787 33.3016 394.296 32.6349 393.775 32L358.252 32Z" fill="black"/>
<path d="M398.189 40L358.252 40V42L398.821 42C398.63 41.3195 398.42 40.6529 398.189 40Z" fill="black"/>
<path d="M399.952 48H358.252V50L400.115 50C400.076 49.323 400.021 48.6563 399.952 48Z" fill="black"/>
<path d="M400.08 56L358.252 56V58L399.888 58C399.968 57.3435 400.032 56.6768 400.08 56Z" fill="black"/>
<path d="M358.252 64L398.642 64C398.436 64.6801 398.209 65.3467 397.961 66L358.252 66V64Z" fill="black"/>
<path d="M358.252 72L394.83 72C394.342 72.6982 393.823 73.3649 393.273 74L358.252 74V72Z" fill="black"/>
<path d="M340.446 74V72H326.251C326.478 72.6407 326.666 73.3073 326.816 74H340.446Z" fill="black"/>
<path d="M305.324 74C304.485 73.6866 303.528 73.415 302.455 73.1851L297.034 72H257.626V74L305.324 74Z" fill="black"/>
<path d="M239.821 74V72H223.941V74H239.821Z" fill="black"/>
<path d="M201.344 80H179.539C180.032 80.7448 180.581 81.4115 181.186 82H199.168C199.935 81.4298 200.66 80.7631 201.344 80Z" fill="black"/>
<path d="M158.919 74C158.919 73.9854 158.919 73.9707 158.919 73.9561C158.918 73.8313 158.917 73.7061 158.917 73.5806V72H146.613C146.51 72.6754 146.39 73.3421 146.254 74H158.919Z" fill="black"/>
<path d="M144.455 80H159.414C159.526 80.6821 159.658 81.3488 159.808 82H143.577C143.891 81.3444 144.183 80.6777 144.455 80Z" fill="black"/>
<path d="M80.7156 82C80.4022 81.3444 80.1096 80.6777 79.8381 80L29.8057 80V82L80.7156 82Z" fill="black"/>
<path d="M73.1987 88V90H86.0161C85.4456 89.3576 84.8985 88.691 84.3748 88H73.1987Z" fill="black"/>
<path d="M138.254 90C138.83 89.3576 139.381 88.691 139.908 88H161.954C162.081 88.25 162.212 88.4968 162.347 88.7403C162.6 89.1712 162.862 89.5911 163.133 90H138.254Z" fill="black"/>
<path d="M207.367 90H207.454V89.8879C207.446 89.8988 207.437 89.9098 207.429 89.9206C207.408 89.9471 207.388 89.9736 207.367 90Z" fill="black"/>
<path d="M29.8057 74L78.0394 74C77.9029 73.3421 77.783 72.6754 77.6796 72L29.8057 72V74Z" fill="black"/>
<path d="M29.8057 66L77.1983 66C77.1959 65.8031 77.1947 65.6056 77.1947 65.4075C77.1947 64.9346 77.2016 64.4655 77.2155 64L29.8057 64V66Z" fill="black"/>
<path d="M29.8057 58L77.8131 58C77.9311 57.3244 78.066 56.6577 78.2178 56L29.8057 56V58Z" fill="black"/>
<path d="M29.8057 50L80.177 50C80.4695 49.3219 80.7834 48.6553 81.1189 48L29.8057 48V50Z" fill="black"/>
<path d="M29.8057 42L85.0242 42C85.5889 41.306 86.1789 40.6393 86.7942 40L29.8057 40V42Z" fill="black"/>
<path d="M137.468 40C138.09 40.6393 138.685 41.306 139.254 42H158.917V40H137.468Z" fill="black"/>
<path d="M176.723 40V42H206.135V40H176.723Z" fill="black"/>
<path d="M223.941 40V42H239.821V40H223.941Z" fill="black"/>
<path d="M257.626 48H270.455C270.367 48.6512 270.31 49.3179 270.286 50L257.626 50V48Z" fill="black"/>
<path d="M257.626 56V58L271.693 58C271.414 57.3518 271.176 56.6851 270.979 56L257.626 56Z" fill="black"/>
<path d="M319.599 64C320.46 64.5694 321.252 65.1704 321.975 65.8029C322.004 65.8276 322.033 65.8524 322.062 65.8773C322.109 65.918 322.156 65.9589 322.203 66H340.446V64H319.599Z" fill="black"/>
<path d="M340.446 58V56L294.248 56L302.98 58L340.446 58Z" fill="black"/>
<path d="M287.709 50H308.123C307.607 49.274 306.96 48.6074 306.18 48L288.459 48C288.036 48.589 287.786 49.2556 287.709 50Z" fill="black"/>
<path d="M325.385 48C325.535 48.4768 325.673 48.9624 325.8 49.4567L323.321 50H340.446V48H325.385Z" fill="black"/>
<path d="M340.446 42V40H321.216C321.723 40.6397 322.196 41.3064 322.635 42H340.446Z" fill="black"/>
<path d="M273.728 39.9727C273.763 39.9262 273.798 39.8798 273.834 39.8336C273.814 39.86 273.793 39.8864 273.773 39.9129C273.758 39.9328 273.743 39.9527 273.728 39.9727Z" fill="black"/>
<path d="M273.707 40C273.224 40.6421 272.791 41.3088 272.41 42L257.626 42V40L273.707 40Z" fill="black"/>
<path d="M278.685 66C277.734 65.3815 276.853 64.7149 276.042 64H257.626V66H278.685Z" fill="black"/>
<path d="M239.821 48H223.941V50H239.821V48Z" fill="black"/>
<path d="M239.821 56H223.941V58H239.821V56Z" fill="black"/>
<path d="M239.821 64L223.941 64V66H239.821V64Z" fill="black"/>
<path d="M206.111 66C206.127 65.506 206.135 65.0009 206.135 64.4847V64L176.723 64V66H206.111Z" fill="black"/>
<path d="M158.917 66V64L147.078 64C147.091 64.4655 147.098 64.9346 147.098 65.4075C147.098 65.6056 147.097 65.8031 147.095 66H158.917Z" fill="black"/>
<path d="M128.348 58C128.153 57.3108 127.929 56.6442 127.674 56L96.6187 56C96.3643 56.6442 96.1398 57.3108 95.9454 58L128.348 58Z" fill="black"/>
<path d="M100.502 50L123.791 50C123.018 49.2435 122.17 48.5791 121.247 48.0067C121.244 48.0044 121.24 48.0022 121.237 48H103.056C103.053 48.0022 103.049 48.0044 103.046 48.0067C102.123 48.5791 101.275 49.2435 100.502 50Z" fill="black"/>
<path d="M143.174 48C143.51 48.6553 143.824 49.3219 144.116 50H158.917V48H143.174Z" fill="black"/>
<path d="M176.723 48V50H206.135V48L176.723 48Z" fill="black"/>
<path d="M206.135 56H176.723V58H206.135V56Z" fill="black"/>
<path d="M158.917 58V56H146.075C146.227 56.6577 146.362 57.3244 146.48 58H158.917Z" fill="black"/>
<path d="M129.263 64C129.283 64.4618 129.293 64.931 129.293 65.4075C129.293 65.6062 129.291 65.8038 129.288 66L95.0055 66C95.0025 65.8315 95.0009 65.6621 95.0005 65.4918" fill="black"/>
<path d="M95.0004 65.4447C95.0004 65.4323 95.0004 65.4199 95.0004 65.4075C95.0004 64.931 95.0101 64.4618 95.0297 64L129.263 64" fill="black"/>
<path d="M128.561 72H95.732C95.8985 72.688 96.0935 73.3546 96.317 74H127.976C128.2 73.3546 128.395 72.688 128.561 72Z" fill="black"/>
<path d="M124.593 80H99.6999C100.328 80.7325 101.014 81.3991 101.756 82H122.537C123.28 81.3991 123.965 80.7325 124.593 80Z" fill="black"/>
<path d="M176.945 72C177.024 72.69 177.125 73.3567 177.248 74H204.858C205.066 73.3684 205.249 72.7017 205.406 72H176.945Z" fill="black"/>
<path d="M223.941 80V82H239.821V80H223.941Z" fill="black"/>
<path d="M239.821 88H223.941V90H239.821V88Z" fill="black"/>
<path d="M257.626 80V82H268.936C268.897 81.8745 268.859 81.7484 268.822 81.6218L275.26 80H257.626Z" fill="black"/>
<path d="M287.473 80C287.872 80.7273 288.362 81.394 288.944 82L309.094 82C309.482 81.3861 309.72 80.7194 309.805 80L287.473 80Z" fill="black"/>
<path d="M324.992 88C324.633 88.6866 324.23 89.3533 323.785 90H340.446V88H324.992Z" fill="black"/>
<path d="M340.446 82V80H327.194C327.147 80.6801 327.071 81.3468 326.966 82H340.446Z" fill="black"/>
<path d="M257.626 88V90H273.033C272.539 89.3565 272.077 88.6898 271.649 88H257.626Z" fill="black"/>
<path d="M358.252 80V82H375.812C379.282 81.887 382.416 81.2203 385.214 80H358.252Z" fill="black"/>
<path d="M404.77 18C404.054 17.3062 403.311 16.6396 402.541 16L430 16V18L404.77 18Z" fill="black"/>
<path d="M392.76 10L430 10V8.00003L386.755 8.00003C388.848 8.52026 390.849 9.18693 392.76 10Z" fill="black"/>
<path d="M340.446 8.00002L258.393 8.00002C258.716 8.63948 258.967 9.30615 259.145 10L340.446 10V8.00002Z" fill="black"/>
<path d="M340.446 16V18L258.105 18C258.471 17.3639 258.764 16.6973 258.983 16L340.446 16Z" fill="black"/>
<path d="M430 106L0 106V104L430 104V106Z" fill="black"/>
</svg>
