<svg width="1600" height="175" viewBox="0 0 1600 175" fill="none" xmlns="http://www.w3.org/2000/svg">
<path d="M70 70H80V80H70V70Z"  />
<path d="M60 90H70V100H60V90Z" fill="white"/>
<path d="M80 60H90V70H80V60Z" fill="white"/>
<path d="M80 80H90V90H80V80Z" fill="white"/>
<path d="M100 50H110V60H100V50Z" fill="white"/>
<path d="M90 70H100V80H90V70Z" fill="white"/>
<path d="M110 40H120V50H110V40Z" fill="white"/>
<path d="M110 60H120V70H110V60Z" fill="white"/>
<path d="M120 60H130V70H120V60Z" fill="white"/>
<path d="M110 80H120V90H110V80Z" fill="white"/>
<path d="M130 50H140V60H130V50Z" fill="white"/>
<path d="M130 70H140V80H130V70Z" fill="white"/>
<path d="M170 50V60H160V50H170Z" fill="white"/>
<path d="M150 40V50H140V40H150Z" fill="white"/>
<path d="M180 60V70H170V60H180Z" fill="white"/>
<path d="M160 60V70H150V60H160Z" fill="white"/>
<path d="M60 40V50H50V40H60Z" fill="white"/>
<path d="M40 30V40H30V30H40Z" fill="white"/>
<path d="M70 50V60H60V50H70Z" fill="white"/>
<path d="M50 50V60H40V50H50Z" fill="white"/>
<path d="M50 60V70H40V60H50Z" fill="white"/>
<path d="M30 50V60H20V50H30Z" fill="white"/>
<path d="M60 70V80H50V70H60Z" fill="white"/>
<path d="M40 70V80H30V70H40Z" fill="white"/>
<path d="M30 70V80H20V70H30Z" fill="white"/>
<path d="M10 60V70H0V60H10Z" fill="white"/>
<path d="M40 80V90H30V80H40Z" fill="white"/>
<path d="M20 80V90H10V80H20Z" fill="white"/>
<path d="M50 40V50H40V40H50Z" fill="white"/>
<path d="M30 30V40H20V30H30Z" fill="white"/>
<path d="M60 50V60H50V50H60Z" fill="white"/>
<path d="M40 50V60H30V50H40Z" fill="white"/>
<path d="M90 30V40H80V30H90Z" fill="white"/>
<path d="M70 20V30H60V20H70Z" fill="white"/>
<path d="M100 40V50H90V40H100Z" fill="white"/>
<path d="M80 40V50H70V40H80Z" fill="white"/>
<path d="M170 30V40H160V30H170Z" fill="white"/>
<path d="M150 20V30H140V20H150Z" fill="white"/>
<path d="M180 40V50H170V40H180Z" fill="white"/>
<path d="M160 40V50H150V40H160Z" fill="white"/>
<path d="M290 30V40H280V30H290Z" fill="white"/>
<path d="M270 20V30H260V20H270Z" fill="white"/>
<path d="M300 40V50H290V40H300Z" fill="white"/>
<path d="M280 40V50H270V40H280Z" fill="white"/>
<path d="M400 80H390V70H400V80Z" fill="white"/>
<path d="M400 50H390V40H400V50Z" fill="white"/>
<path d="M390 90H380V80H390V90Z" fill="white"/>
<path d="M390 70H380V60H390V70Z" fill="white"/>
<path d="M140 40V50H130V40H140Z" fill="white"/>
<path d="M120 30V40H110V30H120Z" fill="white"/>
<path d="M150 50V60H140V50H150Z" fill="white"/>
<path d="M130 50V60H120V50H130Z" fill="white"/>
<path d="M200 40V50H190V40H200Z" fill="white"/>
<path d="M180 30V40H170V30H180Z" fill="white"/>
<path d="M210 50V60H200V50H210Z" fill="white"/>
<path d="M190 50V60H180V50H190Z" fill="white"/>
<path d="M240 40V50H230V40H240Z" fill="white"/>
<path d="M220 30V40H210V30H220Z" fill="white"/>
<path d="M250 50V60H240V50H250Z" fill="white"/>
<path d="M230 50V60H220V50H230Z" fill="white"/>
<path d="M240 60V70H230V60H240Z" fill="white"/>
<path d="M220 50V60H210V50H220Z" fill="white"/>
<path d="M250 70V80H240V70H250Z" fill="white"/>
<path d="M230 70V80H220V70H230Z" fill="white"/>
<path d="M190 90V80H200V90H190Z" fill="white"/>
<path d="M211 100V90H221V100H211Z" fill="white"/>
<path d="M180 80V70H190V80H180Z" fill="white"/>
<path d="M200 80V70H210V80H200Z" fill="white"/>
<path d="M250 50V40H260V50H250Z" fill="white"/>
<path d="M270 60V50H280V60H270Z" fill="white"/>
<path d="M240 40V30H250V40H240Z" fill="white"/>
<path d="M260 40V30H270V40H260Z" fill="white"/>
<path d="M20 145H30V155H20V145Z" fill="white"/>
<path d="M10 165H20V175H10V165Z" fill="white"/>
<path d="M30 135H40V145H30V135Z" fill="white"/>
<path d="M30 155H40V165H30V155Z" fill="white"/>
<path d="M160 100H170V110H160V100Z" fill="white"/>
<path d="M150 120H160V130H150V120Z" fill="white"/>
<path d="M170 90H180V100H170V90Z" fill="white"/>
<path d="M170 110H180V120H170V110Z" fill="white"/>
<path d="M290 80V70H300V80H290Z" fill="white"/>
<path d="M310 90V80H320V90H310Z" fill="white"/>
<path d="M280 70V60H290V70H280Z" fill="white"/>
<path d="M300 70V60H310V70H300Z" fill="white"/>
<path d="M330 125V115H340V125H330Z" fill="white"/>
<path d="M350 135V125H360V135H350Z" fill="white"/>
<path d="M320 115V105H330V115H320Z" fill="white"/>
<path d="M340 115V105H350V115H340Z" fill="white"/>
<path d="M310 70V60H320V70H310Z" fill="white"/>
<path d="M330 80V70H340V80H330Z" fill="white"/>
<path d="M300 60V50H310V60H300Z" fill="white"/>
<path d="M320 60V50H330V60H320Z" fill="white"/>
<path d="M310 50V40H320V50H310Z" fill="white"/>
<path d="M330 60V50H340V60H330Z" fill="white"/>
<path d="M300 40V30H310V40H300Z" fill="white"/>
<path d="M320 40V30H330V40H320Z" fill="white"/>
<path d="M350 100V90H360V100H350Z" fill="white"/>
<path d="M370 110V100H380V110H370Z" fill="white"/>
<path d="M340 90V80H350V90H340Z" fill="white"/>
<path d="M360 90V80H370V90H360Z" fill="white"/>
<path d="M350 70V60H360V70H350Z" fill="white"/>
<path d="M370 80V70H380V80H370Z" fill="white"/>
<path d="M340 60V50H350V60H340Z" fill="white"/>
<path d="M360 60V50H370V60H360Z" fill="white"/>
<path d="M360 50V40H370V50H360Z" fill="white"/>
<path d="M70 10H80V20H70V10Z" fill="white"/>
<path d="M110 10V20H100V10H110Z" fill="white"/>
<path d="M20 10V20H10V10H20Z" fill="white"/>
<path d="M10 10V20H0V10H10Z" fill="white"/>
<path d="M60 10V20H50V10H60Z" fill="white"/>
<path d="M40 10V20H30V10H40Z" fill="white"/>
<path d="M140 10V20H130V10H140Z" fill="white"/>
<path d="M120 10V20H110V10H120Z" fill="white"/>
<path d="M260 10V20H250V10H260Z" fill="white"/>
<path d="M240 10V20H230V10H240Z" fill="white"/>
<path d="M360 20H350V10H360V20Z" fill="white"/>
<path d="M100 10V20H90V10H100Z" fill="white"/>
<path d="M160 10V20H150V10H160Z" fill="white"/>
<path d="M200 10V20H190V10H200Z" fill="white"/>
<path d="M210 20V10H220V20H210Z" fill="white"/>
<path d="M270 20V10H280V20H270Z" fill="white"/>
<path d="M320 20V10H330V20H320Z" fill="white"/>
<path d="M140 10H150V20H140V10Z" fill="white"/>
<path d="M180 20V30H170V20H180Z" fill="white"/>
<path d="M90 20V30H80V20H90Z" fill="white"/>
<path d="M80 20V30H70V20H80Z" fill="white"/>
<path d="M130 20V30H120V20H130Z" fill="white"/>
<path d="M110 20V30H100V20H110Z" fill="white"/>
<path d="M210 20V30H200V20H210Z" fill="white"/>
<path d="M190 20V30H180V20H190Z" fill="white"/>
<path d="M400 10V20H390V10H400Z" fill="white"/>
<path d="M310 20V30H300V20H310Z" fill="white"/>
<path d="M380 20H370V10H380V20Z" fill="white"/>
<path d="M170 20V30H160V20H170Z" fill="white"/>
<path d="M230 20V30H220V20H230Z" fill="white"/>
<path d="M270 20V30H260V20H270Z" fill="white"/>
<path d="M280 30V20H290V30H280Z" fill="white"/>
<path d="M340 20V10H350V20H340Z" fill="white"/>
<path d="M380 20V10H390V20H380Z" fill="white"/>
<path d="M380 30V20H390V30H380Z" fill="white"/>
<path d="M390 40V30H400V40H390Z" fill="white"/>
<path d="M40 10H50V20H40V10Z" fill="white"/>
<path d="M130 10V20H120V10H130Z" fill="white"/>
<path d="M20 20V30H10V20H20Z" fill="white"/>
<path d="M10 20V30H0V20H10Z" fill="white"/>
<path d="M60 20V30H50V20H60Z" fill="white"/>
<path d="M40 20V30H30V20H40Z" fill="white"/>
<path d="M140 30V40H130V30H140Z" fill="white"/>
<path d="M120 20V30H110V20H120Z" fill="white"/>
<path d="M250 10V20H240V10H250Z" fill="white"/>
<path d="M240 30V40H230V30H240Z" fill="white"/>
<path d="M340 30H330V20H340V30Z" fill="white"/>
<path d="M100 20V30H90V20H100Z" fill="white"/>
<path d="M180 10V20H170V10H180Z" fill="white"/>
<path d="M210 10V20H200V10H210Z" fill="white"/>
<path d="M210 30V20H220V30H210Z" fill="white"/>
<path d="M290 20V10H300V20H290Z" fill="white"/>
<path d="M300 20V10H310V20H300Z" fill="white"/>
<path d="M190 30H200V40H190V30Z" fill="white"/>
<path d="M380 20V30H370V20H380Z" fill="white"/>
<path d="M370 30H360V20H370V30Z" fill="white"/>
<path d="M330 20V10H340V20H330Z" fill="white"/>
<path d="M80 0H90V10H80V0Z" fill="white"/>
<path d="M110 0V10H100V0H110Z" fill="white"/>
<path d="M20 0V10H10V0H20Z" fill="white"/>
<path d="M30 0V10H20V0H30Z" fill="white"/>
<path d="M10 0V10H0V0H10Z" fill="white"/>
<path d="M60 0V10H50V0H60Z" fill="white"/>
<path d="M70 0V10H60V0H70Z" fill="white"/>
<path d="M40 0V10H30V0H40Z" fill="white"/>
<path d="M140 0V10H130V0H140Z" fill="white"/>
<path d="M120 0V10H110V0H120Z" fill="white"/>
<path d="M260 0V10H250V0H260Z" fill="white"/>
<path d="M230 0V10H220V0H230Z" fill="white"/>
<path d="M200 0V10H190V0H200Z" fill="white"/>
<path d="M360 10H350V0H360V10Z" fill="white"/>
<path d="M100 0V10H90V0H100Z" fill="white"/>
<path d="M170 0V10H160V0H170Z" fill="white"/>
<path d="M190 0V10H180V0H190Z" fill="white"/>
<path d="M210 10V0H220V10H210Z" fill="white"/>
<path d="M280 10V0H290V10H280Z" fill="white"/>
<path d="M260 10V0H270V10H260Z" fill="white"/>
<path d="M310 10V0H320V10H310Z" fill="white"/>
<path d="M140 0H150V10H140V0Z" fill="white"/>
<path d="M400 0V10H390V0H400Z" fill="white"/>
<path d="M380 10H370V0H380V10Z" fill="white"/>
<path d="M370 10H360V0H370V10Z" fill="white"/>
<path d="M340 10V0H350V10H340Z" fill="white"/>
<path d="M380 10V0H390V10H380Z" fill="white"/>
<path d="M40 0H50V10H40V0Z" fill="white"/>
<path d="M130 0V10H120V0H130Z" fill="white"/>
<path d="M250 0V10H240V0H250Z" fill="white"/>
<path d="M180 0V10H170V0H180Z" fill="white"/>
<path d="M210 0V10H200V0H210Z" fill="white"/>
<path d="M290 10V0H300V10H290Z" fill="white"/>
<path d="M300 10V0H310V10H300Z" fill="white"/>
<path d="M330 10V0H340V10H330Z" fill="white"/>
<path d="M350 30V20H360V30H350Z" fill="white"/>
<path d="M380 60V50H390V60H380Z" fill="white"/>
<path d="M350 40V30H360V40H350Z" fill="white"/>
<path d="M370 40V30H380V40H370Z" fill="white"/>
<path d="M40 125V115H50V125H40Z" fill="white"/>
<path d="M60 135V125H70V135H60Z" fill="white"/>
<path d="M30 115V105H40V115H30Z" fill="white"/>
<path d="M50 115V105H60V115H50Z" fill="white"/>
<path d="M470 70H480V80H470V70Z" fill="white"/>
<path d="M460 90H470V100H460V90Z" fill="white"/>
<path d="M480 60H490V70H480V60Z" fill="white"/>
<path d="M480 80H490V90H480V80Z" fill="white"/>
<path d="M500 50H510V60H500V50Z" fill="white"/>
<path d="M490 70H500V80H490V70Z" fill="white"/>
<path d="M510 40H520V50H510V40Z" fill="white"/>
<path d="M510 60H520V70H510V60Z" fill="white"/>
<path d="M520 60H530V70H520V60Z" fill="white"/>
<path d="M510 80H520V90H510V80Z" fill="white"/>
<path d="M530 50H540V60H530V50Z" fill="white"/>
<path d="M530 70H540V80H530V70Z" fill="white"/>
<path d="M570 50V60H560V50H570Z" fill="white"/>
<path d="M550 40V50H540V40H550Z" fill="white"/>
<path d="M580 60V70H570V60H580Z" fill="white"/>
<path d="M560 60V70H550V60H560Z" fill="white"/>
<path d="M460 40V50H450V40H460Z" fill="white"/>
<path d="M440 30V40H430V30H440Z" fill="white"/>
<path d="M470 50V60H460V50H470Z" fill="white"/>
<path d="M450 50V60H440V50H450Z" fill="white"/>
<path d="M450 60V70H440V60H450Z" fill="white"/>
<path d="M430 50V60H420V50H430Z" fill="white"/>
<path d="M460 70V80H450V70H460Z" fill="white"/>
<path d="M440 70V80H430V70H440Z" fill="white"/>
<path d="M430 70V80H420V70H430Z" fill="white"/>
<path d="M410 60V70H400V60H410Z" fill="white"/>
<path d="M440 80V90H430V80H440Z" fill="white"/>
<path d="M420 80V90H410V80H420Z" fill="white"/>
<path d="M450 40V50H440V40H450Z" fill="white"/>
<path d="M430 30V40H420V30H430Z" fill="white"/>
<path d="M460 50V60H450V50H460Z" fill="white"/>
<path d="M440 50V60H430V50H440Z" fill="white"/>
<path d="M490 30V40H480V30H490Z" fill="white"/>
<path d="M470 20V30H460V20H470Z" fill="white"/>
<path d="M500 40V50H490V40H500Z" fill="white"/>
<path d="M480 40V50H470V40H480Z" fill="white"/>
<path d="M570 30V40H560V30H570Z" fill="white"/>
<path d="M550 20V30H540V20H550Z" fill="white"/>
<path d="M580 40V50H570V40H580Z" fill="white"/>
<path d="M560 40V50H550V40H560Z" fill="white"/>
<path d="M690 30V40H680V30H690Z" fill="white"/>
<path d="M670 20V30H660V20H670Z" fill="white"/>
<path d="M700 40V50H690V40H700Z" fill="white"/>
<path d="M680 40V50H670V40H680Z" fill="white"/>
<path d="M800 80H790V70H800V80Z" fill="white"/>
<path d="M800 50H790V40H800V50Z" fill="white"/>
<path d="M790 90H780V80H790V90Z" fill="white"/>
<path d="M790 70H780V60H790V70Z" fill="white"/>
<path d="M540 40V50H530V40H540Z" fill="white"/>
<path d="M520 30V40H510V30H520Z" fill="white"/>
<path d="M550 50V60H540V50H550Z" fill="white"/>
<path d="M530 50V60H520V50H530Z" fill="white"/>
<path d="M600 40V50H590V40H600Z" fill="white"/>
<path d="M580 30V40H570V30H580Z" fill="white"/>
<path d="M610 50V60H600V50H610Z" fill="white"/>
<path d="M590 50V60H580V50H590Z" fill="white"/>
<path d="M640 40V50H630V40H640Z" fill="white"/>
<path d="M620 30V40H610V30H620Z" fill="white"/>
<path d="M650 50V60H640V50H650Z" fill="white"/>
<path d="M630 50V60H620V50H630Z" fill="white"/>
<path d="M640 60V70H630V60H640Z" fill="white"/>
<path d="M620 50V60H610V50H620Z" fill="white"/>
<path d="M650 70V80H640V70H650Z" fill="white"/>
<path d="M630 70V80H620V70H630Z" fill="white"/>
<path d="M590 90V80H600V90H590Z" fill="white"/>
<path d="M611 100V90H621V100H611Z" fill="white"/>
<path d="M580 80V70H590V80H580Z" fill="white"/>
<path d="M600 80V70H610V80H600Z" fill="white"/>
<path d="M650 50V40H660V50H650Z" fill="white"/>
<path d="M670 60V50H680V60H670Z" fill="white"/>
<path d="M640 40V30H650V40H640Z" fill="white"/>
<path d="M660 40V30H670V40H660Z" fill="white"/>
<path d="M420 145H430V155H420V145Z" fill="white"/>
<path d="M410 165H420V175H410V165Z" fill="white"/>
<path d="M430 135H440V145H430V135Z" fill="white"/>
<path d="M430 155H440V165H430V155Z" fill="white"/>
<path d="M560 100H570V110H560V100Z" fill="white"/>
<path d="M550 120H560V130H550V120Z" fill="white"/>
<path d="M570 90H580V100H570V90Z" fill="white"/>
<path d="M570 110H580V120H570V110Z" fill="white"/>
<path d="M690 80V70H700V80H690Z" fill="white"/>
<path d="M710 90V80H720V90H710Z" fill="white"/>
<path d="M680 70V60H690V70H680Z" fill="white"/>
<path d="M700 70V60H710V70H700Z" fill="white"/>
<path d="M730 125V115H740V125H730Z" fill="white"/>
<path d="M750 135V125H760V135H750Z" fill="white"/>
<path d="M720 115V105H730V115H720Z" fill="white"/>
<path d="M740 115V105H750V115H740Z" fill="white"/>
<path d="M710 70V60H720V70H710Z" fill="white"/>
<path d="M730 80V70H740V80H730Z" fill="white"/>
<path d="M700 60V50H710V60H700Z" fill="white"/>
<path d="M720 60V50H730V60H720Z" fill="white"/>
<path d="M710 50V40H720V50H710Z" fill="white"/>
<path d="M730 60V50H740V60H730Z" fill="white"/>
<path d="M700 40V30H710V40H700Z" fill="white"/>
<path d="M720 40V30H730V40H720Z" fill="white"/>
<path d="M750 100V90H760V100H750Z" fill="white"/>
<path d="M770 110V100H780V110H770Z" fill="white"/>
<path d="M740 90V80H750V90H740Z" fill="white"/>
<path d="M760 90V80H770V90H760Z" fill="white"/>
<path d="M750 70V60H760V70H750Z" fill="white"/>
<path d="M770 80V70H780V80H770Z" fill="white"/>
<path d="M740 60V50H750V60H740Z" fill="white"/>
<path d="M760 60V50H770V60H760Z" fill="white"/>
<path d="M760 50V40H770V50H760Z" fill="white"/>
<path d="M470 10H480V20H470V10Z" fill="white"/>
<path d="M510 10V20H500V10H510Z" fill="white"/>
<path d="M420 10V20H410V10H420Z" fill="white"/>
<path d="M410 10V20H400V10H410Z" fill="white"/>
<path d="M460 10V20H450V10H460Z" fill="white"/>
<path d="M440 10V20H430V10H440Z" fill="white"/>
<path d="M540 10V20H530V10H540Z" fill="white"/>
<path d="M520 10V20H510V10H520Z" fill="white"/>
<path d="M660 10V20H650V10H660Z" fill="white"/>
<path d="M640 10V20H630V10H640Z" fill="white"/>
<path d="M760 20H750V10H760V20Z" fill="white"/>
<path d="M500 10V20H490V10H500Z" fill="white"/>
<path d="M560 10V20H550V10H560Z" fill="white"/>
<path d="M600 10V20H590V10H600Z" fill="white"/>
<path d="M610 20V10H620V20H610Z" fill="white"/>
<path d="M670 20V10H680V20H670Z" fill="white"/>
<path d="M720 20V10H730V20H720Z" fill="white"/>
<path d="M540 10H550V20H540V10Z" fill="white"/>
<path d="M580 20V30H570V20H580Z" fill="white"/>
<path d="M490 20V30H480V20H490Z" fill="white"/>
<path d="M480 20V30H470V20H480Z" fill="white"/>
<path d="M530 20V30H520V20H530Z" fill="white"/>
<path d="M510 20V30H500V20H510Z" fill="white"/>
<path d="M610 20V30H600V20H610Z" fill="white"/>
<path d="M590 20V30H580V20H590Z" fill="white"/>
<path d="M800 10V20H790V10H800Z" fill="white"/>
<path d="M710 20V30H700V20H710Z" fill="white"/>
<path d="M780 20H770V10H780V20Z" fill="white"/>
<path d="M570 20V30H560V20H570Z" fill="white"/>
<path d="M630 20V30H620V20H630Z" fill="white"/>
<path d="M670 20V30H660V20H670Z" fill="white"/>
<path d="M680 30V20H690V30H680Z" fill="white"/>
<path d="M740 20V10H750V20H740Z" fill="white"/>
<path d="M780 20V10H790V20H780Z" fill="white"/>
<path d="M780 30V20H790V30H780Z" fill="white"/>
<path d="M790 40V30H800V40H790Z" fill="white"/>
<path d="M440 10H450V20H440V10Z" fill="white"/>
<path d="M530 10V20H520V10H530Z" fill="white"/>
<path d="M420 20V30H410V20H420Z" fill="white"/>
<path d="M410 20V30H400V20H410Z" fill="white"/>
<path d="M460 20V30H450V20H460Z" fill="white"/>
<path d="M440 20V30H430V20H440Z" fill="white"/>
<path d="M540 30V40H530V30H540Z" fill="white"/>
<path d="M520 20V30H510V20H520Z" fill="white"/>
<path d="M650 10V20H640V10H650Z" fill="white"/>
<path d="M640 30V40H630V30H640Z" fill="white"/>
<path d="M740 30H730V20H740V30Z" fill="white"/>
<path d="M500 20V30H490V20H500Z" fill="white"/>
<path d="M580 10V20H570V10H580Z" fill="white"/>
<path d="M610 10V20H600V10H610Z" fill="white"/>
<path d="M610 30V20H620V30H610Z" fill="white"/>
<path d="M690 20V10H700V20H690Z" fill="white"/>
<path d="M700 20V10H710V20H700Z" fill="white"/>
<path d="M590 30H600V40H590V30Z" fill="white"/>
<path d="M780 20V30H770V20H780Z" fill="white"/>
<path d="M770 30H760V20H770V30Z" fill="white"/>
<path d="M730 20V10H740V20H730Z" fill="white"/>
<path d="M480 0H490V10H480V0Z" fill="white"/>
<path d="M510 0V10H500V0H510Z" fill="white"/>
<path d="M420 0V10H410V0H420Z" fill="white"/>
<path d="M430 0V10H420V0H430Z" fill="white"/>
<path d="M410 0V10H400V0H410Z" fill="white"/>
<path d="M460 0V10H450V0H460Z" fill="white"/>
<path d="M470 0V10H460V0H470Z" fill="white"/>
<path d="M440 0V10H430V0H440Z" fill="white"/>
<path d="M540 0V10H530V0H540Z" fill="white"/>
<path d="M520 0V10H510V0H520Z" fill="white"/>
<path d="M660 0V10H650V0H660Z" fill="white"/>
<path d="M630 0V10H620V0H630Z" fill="white"/>
<path d="M600 0V10H590V0H600Z" fill="white"/>
<path d="M760 10H750V0H760V10Z" fill="white"/>
<path d="M500 0V10H490V0H500Z" fill="white"/>
<path d="M570 0V10H560V0H570Z" fill="white"/>
<path d="M590 0V10H580V0H590Z" fill="white"/>
<path d="M610 10V0H620V10H610Z" fill="white"/>
<path d="M680 10V0H690V10H680Z" fill="white"/>
<path d="M660 10V0H670V10H660Z" fill="white"/>
<path d="M710 10V0H720V10H710Z" fill="white"/>
<path d="M540 0H550V10H540V0Z" fill="white"/>
<path d="M800 0V10H790V0H800Z" fill="white"/>
<path d="M780 10H770V0H780V10Z" fill="white"/>
<path d="M770 10H760V0H770V10Z" fill="white"/>
<path d="M740 10V0H750V10H740Z" fill="white"/>
<path d="M780 10V0H790V10H780Z" fill="white"/>
<path d="M440 0H450V10H440V0Z" fill="white"/>
<path d="M530 0V10H520V0H530Z" fill="white"/>
<path d="M650 0V10H640V0H650Z" fill="white"/>
<path d="M580 0V10H570V0H580Z" fill="white"/>
<path d="M610 0V10H600V0H610Z" fill="white"/>
<path d="M690 10V0H700V10H690Z" fill="white"/>
<path d="M700 10V0H710V10H700Z" fill="white"/>
<path d="M730 10V0H740V10H730Z" fill="white"/>
<path d="M750 30V20H760V30H750Z" fill="white"/>
<path d="M780 60V50H790V60H780Z" fill="white"/>
<path d="M750 40V30H760V40H750Z" fill="white"/>
<path d="M770 40V30H780V40H770Z" fill="white"/>
<path d="M440 125V115H450V125H440Z" fill="white"/>
<path d="M460 135V125H470V135H460Z" fill="white"/>
<path d="M430 115V105H440V115H430Z" fill="white"/>
<path d="M450 115V105H460V115H450Z" fill="white"/>
<path d="M870 70H880V80H870V70Z" fill="white"/>
<path d="M860 90H870V100H860V90Z" fill="white"/>
<path d="M880 60H890V70H880V60Z" fill="white"/>
<path d="M880 80H890V90H880V80Z" fill="white"/>
<path d="M900 50H910V60H900V50Z" fill="white"/>
<path d="M890 70H900V80H890V70Z" fill="white"/>
<path d="M910 40H920V50H910V40Z" fill="white"/>
<path d="M910 60H920V70H910V60Z" fill="white"/>
<path d="M920 60H930V70H920V60Z" fill="white"/>
<path d="M910 80H920V90H910V80Z" fill="white"/>
<path d="M930 50H940V60H930V50Z" fill="white"/>
<path d="M930 70H940V80H930V70Z" fill="white"/>
<path d="M970 50V60H960V50H970Z" fill="white"/>
<path d="M950 40V50H940V40H950Z" fill="white"/>
<path d="M980 60V70H970V60H980Z" fill="white"/>
<path d="M960 60V70H950V60H960Z" fill="white"/>
<path d="M860 40V50H850V40H860Z" fill="white"/>
<path d="M840 30V40H830V30H840Z" fill="white"/>
<path d="M870 50V60H860V50H870Z" fill="white"/>
<path d="M850 50V60H840V50H850Z" fill="white"/>
<path d="M850 60V70H840V60H850Z" fill="white"/>
<path d="M830 50V60H820V50H830Z" fill="white"/>
<path d="M860 70V80H850V70H860Z" fill="white"/>
<path d="M840 70V80H830V70H840Z" fill="white"/>
<path d="M830 70V80H820V70H830Z" fill="white"/>
<path d="M810 60V70H800V60H810Z" fill="white"/>
<path d="M840 80V90H830V80H840Z" fill="white"/>
<path d="M820 80V90H810V80H820Z" fill="white"/>
<path d="M850 40V50H840V40H850Z" fill="white"/>
<path d="M830 30V40H820V30H830Z" fill="white"/>
<path d="M860 50V60H850V50H860Z" fill="white"/>
<path d="M840 50V60H830V50H840Z" fill="white"/>
<path d="M890 30V40H880V30H890Z" fill="white"/>
<path d="M870 20V30H860V20H870Z" fill="white"/>
<path d="M900 40V50H890V40H900Z" fill="white"/>
<path d="M880 40V50H870V40H880Z" fill="white"/>
<path d="M970 30V40H960V30H970Z" fill="white"/>
<path d="M950 20V30H940V20H950Z" fill="white"/>
<path d="M980 40V50H970V40H980Z" fill="white"/>
<path d="M960 40V50H950V40H960Z" fill="white"/>
<path d="M1090 30V40H1080V30H1090Z" fill="white"/>
<path d="M1070 20V30H1060V20H1070Z" fill="white"/>
<path d="M1100 40V50H1090V40H1100Z" fill="white"/>
<path d="M1080 40V50H1070V40H1080Z" fill="white"/>
<path d="M1200 80H1190V70H1200V80Z" fill="white"/>
<path d="M1200 50H1190V40H1200V50Z" fill="white"/>
<path d="M1190 90H1180V80H1190V90Z" fill="white"/>
<path d="M1190 70H1180V60H1190V70Z" fill="white"/>
<path d="M940 40V50H930V40H940Z" fill="white"/>
<path d="M920 30V40H910V30H920Z" fill="white"/>
<path d="M950 50V60H940V50H950Z" fill="white"/>
<path d="M930 50V60H920V50H930Z" fill="white"/>
<path d="M1000 40V50H990V40H1000Z" fill="white"/>
<path d="M980 30V40H970V30H980Z" fill="white"/>
<path d="M1010 50V60H1000V50H1010Z" fill="white"/>
<path d="M990 50V60H980V50H990Z" fill="white"/>
<path d="M1040 40V50H1030V40H1040Z" fill="white"/>
<path d="M1020 30V40H1010V30H1020Z" fill="white"/>
<path d="M1050 50V60H1040V50H1050Z" fill="white"/>
<path d="M1030 50V60H1020V50H1030Z" fill="white"/>
<path d="M1040 60V70H1030V60H1040Z" fill="white"/>
<path d="M1020 50V60H1010V50H1020Z" fill="white"/>
<path d="M1050 70V80H1040V70H1050Z" fill="white"/>
<path d="M1030 70V80H1020V70H1030Z" fill="white"/>
<path d="M990 90V80H1000V90H990Z" fill="white"/>
<path d="M1011 100V90H1021V100H1011Z" fill="white"/>
<path d="M980 80V70H990V80H980Z" fill="white"/>
<path d="M1000 80V70H1010V80H1000Z" fill="white"/>
<path d="M1050 50V40H1060V50H1050Z" fill="white"/>
<path d="M1070 60V50H1080V60H1070Z" fill="white"/>
<path d="M1040 40V30H1050V40H1040Z" fill="white"/>
<path d="M1060 40V30H1070V40H1060Z" fill="white"/>
<path d="M820 145H830V155H820V145Z" fill="white"/>
<path d="M810 165H820V175H810V165Z" fill="white"/>
<path d="M830 135H840V145H830V135Z" fill="white"/>
<path d="M830 155H840V165H830V155Z" fill="white"/>
<path d="M960 100H970V110H960V100Z" fill="white"/>
<path d="M950 120H960V130H950V120Z" fill="white"/>
<path d="M970 90H980V100H970V90Z" fill="white"/>
<path d="M970 110H980V120H970V110Z" fill="white"/>
<path d="M1090 80V70H1100V80H1090Z" fill="white"/>
<path d="M1110 90V80H1120V90H1110Z" fill="white"/>
<path d="M1080 70V60H1090V70H1080Z" fill="white"/>
<path d="M1100 70V60H1110V70H1100Z" fill="white"/>
<path d="M1130 125V115H1140V125H1130Z" fill="white"/>
<path d="M1150 135V125H1160V135H1150Z" fill="white"/>
<path d="M1120 115V105H1130V115H1120Z" fill="white"/>
<path d="M1140 115V105H1150V115H1140Z" fill="white"/>
<path d="M1110 70V60H1120V70H1110Z" fill="white"/>
<path d="M1130 80V70H1140V80H1130Z" fill="white"/>
<path d="M1100 60V50H1110V60H1100Z" fill="white"/>
<path d="M1120 60V50H1130V60H1120Z" fill="white"/>
<path d="M1110 50V40H1120V50H1110Z" fill="white"/>
<path d="M1130 60V50H1140V60H1130Z" fill="white"/>
<path d="M1100 40V30H1110V40H1100Z" fill="white"/>
<path d="M1120 40V30H1130V40H1120Z" fill="white"/>
<path d="M1150 100V90H1160V100H1150Z" fill="white"/>
<path d="M1170 110V100H1180V110H1170Z" fill="white"/>
<path d="M1140 90V80H1150V90H1140Z" fill="white"/>
<path d="M1160 90V80H1170V90H1160Z" fill="white"/>
<path d="M1150 70V60H1160V70H1150Z" fill="white"/>
<path d="M1170 80V70H1180V80H1170Z" fill="white"/>
<path d="M1140 60V50H1150V60H1140Z" fill="white"/>
<path d="M1160 60V50H1170V60H1160Z" fill="white"/>
<path d="M1160 50V40H1170V50H1160Z" fill="white"/>
<path d="M870 10H880V20H870V10Z" fill="white"/>
<path d="M910 10V20H900V10H910Z" fill="white"/>
<path d="M820 10V20H810V10H820Z" fill="white"/>
<path d="M810 10V20H800V10H810Z" fill="white"/>
<path d="M860 10V20H850V10H860Z" fill="white"/>
<path d="M840 10V20H830V10H840Z" fill="white"/>
<path d="M940 10V20H930V10H940Z" fill="white"/>
<path d="M920 10V20H910V10H920Z" fill="white"/>
<path d="M1060 10V20H1050V10H1060Z" fill="white"/>
<path d="M1040 10V20H1030V10H1040Z" fill="white"/>
<path d="M1160 20H1150V10H1160V20Z" fill="white"/>
<path d="M900 10V20H890V10H900Z" fill="white"/>
<path d="M960 10V20H950V10H960Z" fill="white"/>
<path d="M1000 10V20H990V10H1000Z" fill="white"/>
<path d="M1010 20V10H1020V20H1010Z" fill="white"/>
<path d="M1070 20V10H1080V20H1070Z" fill="white"/>
<path d="M1120 20V10H1130V20H1120Z" fill="white"/>
<path d="M940 10H950V20H940V10Z" fill="white"/>
<path d="M980 20V30H970V20H980Z" fill="white"/>
<path d="M890 20V30H880V20H890Z" fill="white"/>
<path d="M880 20V30H870V20H880Z" fill="white"/>
<path d="M930 20V30H920V20H930Z" fill="white"/>
<path d="M910 20V30H900V20H910Z" fill="white"/>
<path d="M1010 20V30H1000V20H1010Z" fill="white"/>
<path d="M990 20V30H980V20H990Z" fill="white"/>
<path d="M1200 10V20H1190V10H1200Z" fill="white"/>
<path d="M1110 20V30H1100V20H1110Z" fill="white"/>
<path d="M1180 20H1170V10H1180V20Z" fill="white"/>
<path d="M970 20V30H960V20H970Z" fill="white"/>
<path d="M1030 20V30H1020V20H1030Z" fill="white"/>
<path d="M1070 20V30H1060V20H1070Z" fill="white"/>
<path d="M1080 30V20H1090V30H1080Z" fill="white"/>
<path d="M1140 20V10H1150V20H1140Z" fill="white"/>
<path d="M1180 20V10H1190V20H1180Z" fill="white"/>
<path d="M1180 30V20H1190V30H1180Z" fill="white"/>
<path d="M1190 40V30H1200V40H1190Z" fill="white"/>
<path d="M840 10H850V20H840V10Z" fill="white"/>
<path d="M930 10V20H920V10H930Z" fill="white"/>
<path d="M820 20V30H810V20H820Z" fill="white"/>
<path d="M810 20V30H800V20H810Z" fill="white"/>
<path d="M860 20V30H850V20H860Z" fill="white"/>
<path d="M840 20V30H830V20H840Z" fill="white"/>
<path d="M940 30V40H930V30H940Z" fill="white"/>
<path d="M920 20V30H910V20H920Z" fill="white"/>
<path d="M1050 10V20H1040V10H1050Z" fill="white"/>
<path d="M1040 30V40H1030V30H1040Z" fill="white"/>
<path d="M1140 30H1130V20H1140V30Z" fill="white"/>
<path d="M900 20V30H890V20H900Z" fill="white"/>
<path d="M980 10V20H970V10H980Z" fill="white"/>
<path d="M1010 10V20H1000V10H1010Z" fill="white"/>
<path d="M1010 30V20H1020V30H1010Z" fill="white"/>
<path d="M1090 20V10H1100V20H1090Z" fill="white"/>
<path d="M1100 20V10H1110V20H1100Z" fill="white"/>
<path d="M990 30H1000V40H990V30Z" fill="white"/>
<path d="M1180 20V30H1170V20H1180Z" fill="white"/>
<path d="M1170 30H1160V20H1170V30Z" fill="white"/>
<path d="M1130 20V10H1140V20H1130Z" fill="white"/>
<path d="M880 0H890V10H880V0Z" fill="white"/>
<path d="M910 0V10H900V0H910Z" fill="white"/>
<path d="M820 0V10H810V0H820Z" fill="white"/>
<path d="M830 0V10H820V0H830Z" fill="white"/>
<path d="M810 0V10H800V0H810Z" fill="white"/>
<path d="M860 0V10H850V0H860Z" fill="white"/>
<path d="M870 0V10H860V0H870Z" fill="white"/>
<path d="M840 0V10H830V0H840Z" fill="white"/>
<path d="M940 0V10H930V0H940Z" fill="white"/>
<path d="M920 0V10H910V0H920Z" fill="white"/>
<path d="M1060 0V10H1050V0H1060Z" fill="white"/>
<path d="M1030 0V10H1020V0H1030Z" fill="white"/>
<path d="M1000 0V10H990V0H1000Z" fill="white"/>
<path d="M1160 10H1150V0H1160V10Z" fill="white"/>
<path d="M900 0V10H890V0H900Z" fill="white"/>
<path d="M970 0V10H960V0H970Z" fill="white"/>
<path d="M990 0V10H980V0H990Z" fill="white"/>
<path d="M1010 10V0H1020V10H1010Z" fill="white"/>
<path d="M1080 10V0H1090V10H1080Z" fill="white"/>
<path d="M1060 10V0H1070V10H1060Z" fill="white"/>
<path d="M1110 10V0H1120V10H1110Z" fill="white"/>
<path d="M940 0H950V10H940V0Z" fill="white"/>
<path d="M1200 0V10H1190V0H1200Z" fill="white"/>
<path d="M1180 10H1170V0H1180V10Z" fill="white"/>
<path d="M1170 10H1160V0H1170V10Z" fill="white"/>
<path d="M1140 10V0H1150V10H1140Z" fill="white"/>
<path d="M1180 10V0H1190V10H1180Z" fill="white"/>
<path d="M840 0H850V10H840V0Z" fill="white"/>
<path d="M930 0V10H920V0H930Z" fill="white"/>
<path d="M1050 0V10H1040V0H1050Z" fill="white"/>
<path d="M980 0V10H970V0H980Z" fill="white"/>
<path d="M1010 0V10H1000V0H1010Z" fill="white"/>
<path d="M1090 10V0H1100V10H1090Z" fill="white"/>
<path d="M1100 10V0H1110V10H1100Z" fill="white"/>
<path d="M1130 10V0H1140V10H1130Z" fill="white"/>
<path d="M1150 30V20H1160V30H1150Z" fill="white"/>
<path d="M1180 60V50H1190V60H1180Z" fill="white"/>
<path d="M1150 40V30H1160V40H1150Z" fill="white"/>
<path d="M1170 40V30H1180V40H1170Z" fill="white"/>
<path d="M840 125V115H850V125H840Z" fill="white"/>
<path d="M860 135V125H870V135H860Z" fill="white"/>
<path d="M830 115V105H840V115H830Z" fill="white"/>
<path d="M850 115V105H860V115H850Z" fill="white"/>
<path d="M1270 70H1280V80H1270V70Z" fill="white"/>
<path d="M1260 90H1270V100H1260V90Z" fill="white"/>
<path d="M1280 60H1290V70H1280V60Z" fill="white"/>
<path d="M1280 80H1290V90H1280V80Z" fill="white"/>
<path d="M1300 50H1310V60H1300V50Z" fill="white"/>
<path d="M1290 70H1300V80H1290V70Z" fill="white"/>
<path d="M1310 40H1320V50H1310V40Z" fill="white"/>
<path d="M1310 60H1320V70H1310V60Z" fill="white"/>
<path d="M1320 60H1330V70H1320V60Z" fill="white"/>
<path d="M1310 80H1320V90H1310V80Z" fill="white"/>
<path d="M1330 50H1340V60H1330V50Z" fill="white"/>
<path d="M1330 70H1340V80H1330V70Z" fill="white"/>
<path d="M1370 50V60H1360V50H1370Z" fill="white"/>
<path d="M1350 40V50H1340V40H1350Z" fill="white"/>
<path d="M1380 60V70H1370V60H1380Z" fill="white"/>
<path d="M1360 60V70H1350V60H1360Z" fill="white"/>
<path d="M1260 40V50H1250V40H1260Z" fill="white"/>
<path d="M1240 30V40H1230V30H1240Z" fill="white"/>
<path d="M1270 50V60H1260V50H1270Z" fill="white"/>
<path d="M1250 50V60H1240V50H1250Z" fill="white"/>
<path d="M1250 60V70H1240V60H1250Z" fill="white"/>
<path d="M1230 50V60H1220V50H1230Z" fill="white"/>
<path d="M1260 70V80H1250V70H1260Z" fill="white"/>
<path d="M1240 70V80H1230V70H1240Z" fill="white"/>
<path d="M1230 70V80H1220V70H1230Z" fill="white"/>
<path d="M1210 60V70H1200V60H1210Z" fill="white"/>
<path d="M1240 80V90H1230V80H1240Z" fill="white"/>
<path d="M1220 80V90H1210V80H1220Z" fill="white"/>
<path d="M1250 40V50H1240V40H1250Z" fill="white"/>
<path d="M1230 30V40H1220V30H1230Z" fill="white"/>
<path d="M1260 50V60H1250V50H1260Z" fill="white"/>
<path d="M1240 50V60H1230V50H1240Z" fill="white"/>
<path d="M1290 30V40H1280V30H1290Z" fill="white"/>
<path d="M1270 20V30H1260V20H1270Z" fill="white"/>
<path d="M1300 40V50H1290V40H1300Z" fill="white"/>
<path d="M1280 40V50H1270V40H1280Z" fill="white"/>
<path d="M1370 30V40H1360V30H1370Z" fill="white"/>
<path d="M1350 20V30H1340V20H1350Z" fill="white"/>
<path d="M1380 40V50H1370V40H1380Z" fill="white"/>
<path d="M1360 40V50H1350V40H1360Z" fill="white"/>
<path d="M1490 30V40H1480V30H1490Z" fill="white"/>
<path d="M1470 20V30H1460V20H1470Z" fill="white"/>
<path d="M1500 40V50H1490V40H1500Z" fill="white"/>
<path d="M1480 40V50H1470V40H1480Z" fill="white"/>
<path d="M1600 80H1590V70H1600V80Z" fill="white"/>
<path d="M1600 50H1590V40H1600V50Z" fill="white"/>
<path d="M1590 90H1580V80H1590V90Z" fill="white"/>
<path d="M1590 70H1580V60H1590V70Z" fill="white"/>
<path d="M1340 40V50H1330V40H1340Z" fill="white"/>
<path d="M1320 30V40H1310V30H1320Z" fill="white"/>
<path d="M1350 50V60H1340V50H1350Z" fill="white"/>
<path d="M1330 50V60H1320V50H1330Z" fill="white"/>
<path d="M1400 40V50H1390V40H1400Z" fill="white"/>
<path d="M1380 30V40H1370V30H1380Z" fill="white"/>
<path d="M1410 50V60H1400V50H1410Z" fill="white"/>
<path d="M1390 50V60H1380V50H1390Z" fill="white"/>
<path d="M1440 40V50H1430V40H1440Z" fill="white"/>
<path d="M1420 30V40H1410V30H1420Z" fill="white"/>
<path d="M1450 50V60H1440V50H1450Z" fill="white"/>
<path d="M1430 50V60H1420V50H1430Z" fill="white"/>
<path d="M1440 60V70H1430V60H1440Z" fill="white"/>
<path d="M1420 50V60H1410V50H1420Z" fill="white"/>
<path d="M1450 70V80H1440V70H1450Z" fill="white"/>
<path d="M1430 70V80H1420V70H1430Z" fill="white"/>
<path d="M1390 90V80H1400V90H1390Z" fill="white"/>
<path d="M1411 100V90H1421V100H1411Z" fill="white"/>
<path d="M1380 80V70H1390V80H1380Z" fill="white"/>
<path d="M1400 80V70H1410V80H1400Z" fill="white"/>
<path d="M1450 50V40H1460V50H1450Z" fill="white"/>
<path d="M1470 60V50H1480V60H1470Z" fill="white"/>
<path d="M1440 40V30H1450V40H1440Z" fill="white"/>
<path d="M1460 40V30H1470V40H1460Z" fill="white"/>
<path d="M1220 145H1230V155H1220V145Z" fill="white"/>
<path d="M1210 165H1220V175H1210V165Z" fill="white"/>
<path d="M1230 135H1240V145H1230V135Z" fill="white"/>
<path d="M1230 155H1240V165H1230V155Z" fill="white"/>
<path d="M1360 100H1370V110H1360V100Z" fill="white"/>
<path d="M1350 120H1360V130H1350V120Z" fill="white"/>
<path d="M1370 90H1380V100H1370V90Z" fill="white"/>
<path d="M1370 110H1380V120H1370V110Z" fill="white"/>
<path d="M1490 80V70H1500V80H1490Z" fill="white"/>
<path d="M1510 90V80H1520V90H1510Z" fill="white"/>
<path d="M1480 70V60H1490V70H1480Z" fill="white"/>
<path d="M1500 70V60H1510V70H1500Z" fill="white"/>
<path d="M1530 125V115H1540V125H1530Z" fill="white"/>
<path d="M1550 135V125H1560V135H1550Z" fill="white"/>
<path d="M1520 115V105H1530V115H1520Z" fill="white"/>
<path d="M1540 115V105H1550V115H1540Z" fill="white"/>
<path d="M1510 70V60H1520V70H1510Z" fill="white"/>
<path d="M1530 80V70H1540V80H1530Z" fill="white"/>
<path d="M1500 60V50H1510V60H1500Z" fill="white"/>
<path d="M1520 60V50H1530V60H1520Z" fill="white"/>
<path d="M1510 50V40H1520V50H1510Z" fill="white"/>
<path d="M1530 60V50H1540V60H1530Z" fill="white"/>
<path d="M1500 40V30H1510V40H1500Z" fill="white"/>
<path d="M1520 40V30H1530V40H1520Z" fill="white"/>
<path d="M1550 100V90H1560V100H1550Z" fill="white"/>
<path d="M1570 110V100H1580V110H1570Z" fill="white"/>
<path d="M1540 90V80H1550V90H1540Z" fill="white"/>
<path d="M1560 90V80H1570V90H1560Z" fill="white"/>
<path d="M1550 70V60H1560V70H1550Z" fill="white"/>
<path d="M1570 80V70H1580V80H1570Z" fill="white"/>
<path d="M1540 60V50H1550V60H1540Z" fill="white"/>
<path d="M1560 60V50H1570V60H1560Z" fill="white"/>
<path d="M1560 50V40H1570V50H1560Z" fill="white"/>
<path d="M1270 10H1280V20H1270V10Z" fill="white"/>
<path d="M1310 10V20H1300V10H1310Z" fill="white"/>
<path d="M1220 10V20H1210V10H1220Z" fill="white"/>
<path d="M1210 10V20H1200V10H1210Z" fill="white"/>
<path d="M1260 10V20H1250V10H1260Z" fill="white"/>
<path d="M1240 10V20H1230V10H1240Z" fill="white"/>
<path d="M1340 10V20H1330V10H1340Z" fill="white"/>
<path d="M1320 10V20H1310V10H1320Z" fill="white"/>
<path d="M1460 10V20H1450V10H1460Z" fill="white"/>
<path d="M1440 10V20H1430V10H1440Z" fill="white"/>
<path d="M1560 20H1550V10H1560V20Z" fill="white"/>
<path d="M1300 10V20H1290V10H1300Z" fill="white"/>
<path d="M1360 10V20H1350V10H1360Z" fill="white"/>
<path d="M1400 10V20H1390V10H1400Z" fill="white"/>
<path d="M1410 20V10H1420V20H1410Z" fill="white"/>
<path d="M1470 20V10H1480V20H1470Z" fill="white"/>
<path d="M1520 20V10H1530V20H1520Z" fill="white"/>
<path d="M1340 10H1350V20H1340V10Z" fill="white"/>
<path d="M1380 20V30H1370V20H1380Z" fill="white"/>
<path d="M1290 20V30H1280V20H1290Z" fill="white"/>
<path d="M1280 20V30H1270V20H1280Z" fill="white"/>
<path d="M1330 20V30H1320V20H1330Z" fill="white"/>
<path d="M1310 20V30H1300V20H1310Z" fill="white"/>
<path d="M1410 20V30H1400V20H1410Z" fill="white"/>
<path d="M1390 20V30H1380V20H1390Z" fill="white"/>
<path d="M1600 10V20H1590V10H1600Z" fill="white"/>
<path d="M1510 20V30H1500V20H1510Z" fill="white"/>
<path d="M1580 20H1570V10H1580V20Z" fill="white"/>
<path d="M1370 20V30H1360V20H1370Z" fill="white"/>
<path d="M1430 20V30H1420V20H1430Z" fill="white"/>
<path d="M1470 20V30H1460V20H1470Z" fill="white"/>
<path d="M1480 30V20H1490V30H1480Z" fill="white"/>
<path d="M1540 20V10H1550V20H1540Z" fill="white"/>
<path d="M1580 20V10H1590V20H1580Z" fill="white"/>
<path d="M1580 30V20H1590V30H1580Z" fill="white"/>
<path d="M1590 40V30H1600V40H1590Z" fill="white"/>
<path d="M1240 10H1250V20H1240V10Z" fill="white"/>
<path d="M1330 10V20H1320V10H1330Z" fill="white"/>
<path d="M1220 20V30H1210V20H1220Z" fill="white"/>
<path d="M1210 20V30H1200V20H1210Z" fill="white"/>
<path d="M1260 20V30H1250V20H1260Z" fill="white"/>
<path d="M1240 20V30H1230V20H1240Z" fill="white"/>
<path d="M1340 30V40H1330V30H1340Z" fill="white"/>
<path d="M1320 20V30H1310V20H1320Z" fill="white"/>
<path d="M1450 10V20H1440V10H1450Z" fill="white"/>
<path d="M1440 30V40H1430V30H1440Z" fill="white"/>
<path d="M1540 30H1530V20H1540V30Z" fill="white"/>
<path d="M1300 20V30H1290V20H1300Z" fill="white"/>
<path d="M1380 10V20H1370V10H1380Z" fill="white"/>
<path d="M1410 10V20H1400V10H1410Z" fill="white"/>
<path d="M1410 30V20H1420V30H1410Z" fill="white"/>
<path d="M1490 20V10H1500V20H1490Z" fill="white"/>
<path d="M1500 20V10H1510V20H1500Z" fill="white"/>
<path d="M1390 30H1400V40H1390V30Z" fill="white"/>
<path d="M1580 20V30H1570V20H1580Z" fill="white"/>
<path d="M1570 30H1560V20H1570V30Z" fill="white"/>
<path d="M1530 20V10H1540V20H1530Z" fill="white"/>
<path d="M1280 0H1290V10H1280V0Z" fill="white"/>
<path d="M1310 0V10H1300V0H1310Z" fill="white"/>
<path d="M1220 0V10H1210V0H1220Z" fill="white"/>
<path d="M1230 0V10H1220V0H1230Z" fill="white"/>
<path d="M1210 0V10H1200V0H1210Z" fill="white"/>
<path d="M1260 0V10H1250V0H1260Z" fill="white"/>
<path d="M1270 0V10H1260V0H1270Z" fill="white"/>
<path d="M1240 0V10H1230V0H1240Z" fill="white"/>
<path d="M1340 0V10H1330V0H1340Z" fill="white"/>
<path d="M1320 0V10H1310V0H1320Z" fill="white"/>
<path d="M1460 0V10H1450V0H1460Z" fill="white"/>
<path d="M1430 0V10H1420V0H1430Z" fill="white"/>
<path d="M1400 0V10H1390V0H1400Z" fill="white"/>
<path d="M1560 10H1550V0H1560V10Z" fill="white"/>
<path d="M1300 0V10H1290V0H1300Z" fill="white"/>
<path d="M1370 0V10H1360V0H1370Z" fill="white"/>
<path d="M1390 0V10H1380V0H1390Z" fill="white"/>
<path d="M1410 10V0H1420V10H1410Z" fill="white"/>
<path d="M1480 10V0H1490V10H1480Z" fill="white"/>
<path d="M1460 10V0H1470V10H1460Z" fill="white"/>
<path d="M1510 10V0H1520V10H1510Z" fill="white"/>
<path d="M1340 0H1350V10H1340V0Z" fill="white"/>
<path d="M1600 0V10H1590V0H1600Z" fill="white"/>
<path d="M1580 10H1570V0H1580V10Z" fill="white"/>
<path d="M1570 10H1560V0H1570V10Z" fill="white"/>
<path d="M1540 10V0H1550V10H1540Z" fill="white"/>
<path d="M1580 10V0H1590V10H1580Z" fill="white"/>
<path d="M1240 0H1250V10H1240V0Z" fill="white"/>
<path d="M1330 0V10H1320V0H1330Z" fill="white"/>
<path d="M1450 0V10H1440V0H1450Z" fill="white"/>
<path d="M1380 0V10H1370V0H1380Z" fill="white"/>
<path d="M1410 0V10H1400V0H1410Z" fill="white"/>
<path d="M1490 10V0H1500V10H1490Z" fill="white"/>
<path d="M1500 10V0H1510V10H1500Z" fill="white"/>
<path d="M1530 10V0H1540V10H1530Z" fill="white"/>
<path d="M1550 30V20H1560V30H1550Z" fill="white"/>
<path d="M1580 60V50H1590V60H1580Z" fill="white"/>
<path d="M1550 40V30H1560V40H1550Z" fill="white"/>
<path d="M1570 40V30H1580V40H1570Z" fill="white"/>
<path d="M1240 125V115H1250V125H1240Z" fill="white"/>
<path d="M1260 135V125H1270V135H1260Z" fill="white"/>
<path d="M1230 115V105H1240V115H1230Z" fill="white"/>
<path d="M1250 115V105H1260V115H1250Z" fill="white"/>
</svg>
